<svg width="159" height="166" viewBox="0 0 159 166" fill="none" xmlns="http://www.w3.org/2000/svg">
<path fill-rule="evenodd" clip-rule="evenodd" d="M88.4148 124.905C89.1736 125.116 89.8366 125.286 90.4996 125.455C92.0172 125.876 92.5035 126.593 92.3421 128.165C92.2286 129.757 92.0673 131.329 91.8855 132.948C91.67 134.78 91.2948 135.129 89.5463 135.514C89.0409 135.638 88.5629 135.83 88.0575 135.954C88.0486 136.064 88.0396 136.173 88.0307 136.282C88.3179 136.405 88.6325 136.596 88.9401 136.67C92.515 137.573 92.1539 138.154 91.8038 141.229C91.7298 141.933 91.5875 142.665 91.5135 143.369C91.2909 145.084 90.9706 145.57 89.2834 145.812C87.1794 146.102 85.0136 146.14 82.8822 146.362C82.3015 146.397 81.7482 146.501 81.2499 146.741C78.0069 148.242 74.7301 149.956 70.9771 148.808C68.0104 147.938 65.6096 146.405 63.9311 143.709C63.753 143.463 63.4384 143.272 63.1034 143.129C61.4007 142.346 59.6847 141.727 58.0229 140.849C56.5322 140.1 56.3056 139.437 56.5761 137.742C56.8127 136.259 57.0219 134.708 57.3543 133.266C57.531 132.719 57.9605 132.11 58.4518 131.754C59.1001 131.295 59.9469 131.034 60.7184 130.684C60.691 130.616 60.684 130.5 60.6361 130.479C58.6329 129.738 58.4184 128.119 58.7501 126.281C58.9191 125.221 58.9038 124.196 58.9567 123.144C59.0216 121.135 59.8396 120.013 61.7381 119.409C62.1956 119.265 62.701 119.141 63.2747 118.989C63.089 118.231 62.9989 117.514 62.7928 116.804C61.0808 110.473 58.5087 104.567 54.2092 99.3952C50.4439 94.9604 46.9651 90.2517 44.3598 84.954C41.1923 78.4548 41.2155 71.9023 43.7733 65.2431C47.481 55.6235 53.9117 48.2404 62.2991 42.3708C67.4448 38.7956 72.9952 36.1284 79.2803 35.5849C87.3279 34.8882 94.5946 37.0829 101.107 41.8412C111.32 49.1964 116.694 59.4089 118.075 71.8213C118.906 78.6252 117.762 85.1522 113.973 91.1165C111.418 95.1178 108.096 98.3962 104.801 101.743C102.032 104.522 99.297 107.353 96.5961 110.236C92.913 114.096 90.7347 118.937 88.7204 123.791C88.5979 124.078 88.5507 124.454 88.4148 124.905ZM63.8709 91.467C65.3392 91.075 66.4789 90.26 67.5362 89.2402C68.1296 88.6448 68.2655 88.1936 67.6835 87.4362C65.7108 84.5015 65.4732 81.3452 67.1417 78.097C67.6592 77.0166 68.3611 75.9017 69.8371 76.0222C70.9373 76.0955 71.8001 77.2556 72.1512 78.8197C72.1972 79.0656 72.2363 79.3274 72.2687 79.6052C72.526 82.3173 71.9838 84.9146 70.587 87.2605C70.1646 87.9855 70.254 88.3064 70.9107 88.7563C72.9215 90.0101 76.6381 89.7852 78.2889 88.17C78.4663 88.0194 78.4107 87.4865 78.3213 87.1656C75.8175 81.2322 76.7373 75.628 80.1925 70.3133C80.8332 69.342 81.6308 68.268 83.0526 68.6482C84.3787 68.9876 84.6679 70.299 84.8338 71.5012C85.5745 77.1915 84.5449 82.5226 81.1981 87.3179C81.0482 87.5368 80.9256 87.8239 80.7757 88.0428C82.1172 89.4071 84.6117 89.7924 86.3117 88.9901C86.261 88.6668 86.2263 88.3503 86.2076 88.0406C85.8405 85.0553 86.4369 82.1983 87.9358 79.6131C88.5285 78.6214 89.3261 77.5474 90.6522 77.8868C91.9305 78.2058 92.24 79.4693 92.3103 80.6307C92.6098 84.0396 91.453 86.8839 88.9083 89.1361C88.267 89.7111 88.1789 90.1827 88.8152 90.6804C89.5746 91.2872 90.4502 91.887 91.3392 92.3228C92.276 92.779 92.7195 92.4025 92.9842 91.384C93.961 87.1052 95.0334 82.8672 96.1537 78.6496C96.2488 78.2942 96.6514 78.0134 96.9584 77.6917C97.123 78.1014 97.2877 78.5111 97.4524 78.9208C97.4868 79.1052 97.3573 79.2762 97.3439 79.4402C96.543 82.6438 95.749 85.8313 94.9617 89.0029C94.6765 90.0693 94.3913 91.1357 94.0928 92.366C97.4328 91.6977 100.047 90.2106 102.189 87.843C102.584 87.446 102.918 86.7964 103.465 87.3694C103.664 87.5672 103.358 88.2851 103.174 88.7159C103.031 89.0509 102.717 89.2564 102.478 89.5506C100.259 91.6588 97.6445 93.0137 94.6346 93.6155C93.9448 93.7738 93.6104 94.0271 93.4203 94.7381C91.7351 100.28 90.0089 105.785 88.2416 111.254C87.5621 113.51 86.7391 115.705 86.0117 117.94C86.6952 118.062 87.2625 118.191 87.8777 118.34C89.6205 118.631 89.8457 118.501 90.2936 116.655C89.6305 116.486 88.9267 116.412 88.3523 116.167C87.9694 116.003 87.7365 115.621 87.4148 115.314C87.8245 115.149 88.2067 114.916 88.5552 114.895C89.1154 114.908 89.6145 115.064 90.1339 115.173C91.3094 115.335 91.5347 115.205 91.7171 113.981C90.8422 113.778 89.9264 113.67 89.0241 113.398C88.6686 113.303 88.4287 112.805 88.1549 112.518C88.5441 112.402 88.9468 112.121 89.3227 112.168C90.211 112.207 91.0929 112.527 92.0016 112.519C92.514 112.511 93.1694 112.168 93.4967 111.799C95.0722 110.095 96.5245 108.282 98.0796 106.626C101.654 102.889 105.31 99.3574 108.836 95.6005C114.531 89.5441 117.361 82.3788 116.944 73.9413C116.699 70.2726 115.996 66.7482 114.945 63.2449C112.438 55.3301 108.061 48.8807 101.507 43.8219C95.0484 38.804 87.8289 36.2334 79.6173 36.9167C73.3527 37.4123 67.9867 40.045 62.9092 43.5928C54.7675 49.2843 48.5346 56.4689 44.9769 65.8697C44.7115 66.4919 44.5214 67.2028 44.2426 67.989C45.7665 68.1299 47.0785 68.237 48.3905 68.3442C48.7463 64.5925 49.2695 62.8357 50.8035 60.8311C51.0625 60.4891 51.6637 60.4061 52.0938 60.1936C52.0262 60.6173 52.0817 61.1501 51.9184 61.533C51.2925 63.1329 50.523 64.6715 49.9928 66.3122C49.7344 67.0506 49.818 68.048 49.9834 68.854C50.1072 69.3594 50.6548 69.9324 51.0855 70.1161C51.441 70.2112 52.021 69.7798 52.3962 69.4307C52.7306 69.1773 52.9622 68.767 53.1734 68.4045C55.4016 64.7727 58.2934 61.7068 61.4795 58.8796C63.3626 57.2503 65.1633 55.4162 66.8479 53.5891C67.939 52.3574 68.6402 50.8462 68.7741 49.2062C68.9552 47.1903 68.086 46.3103 66.1876 46.9148C64.9311 47.3405 63.7436 48.1351 62.4941 48.6769C62.1527 48.8142 61.7494 48.6987 61.3531 48.6993C61.4482 48.3439 61.4201 47.8793 61.6658 47.7013C63.3306 46.3183 65.1671 45.4612 67.333 45.4234C68.8702 45.4003 69.8077 46.2528 70.0631 47.776C70.3529 49.4837 70.055 51.1103 69.1349 52.4715C67.7783 54.3254 66.4492 56.2476 64.7231 57.7742C60.6093 61.4501 56.5707 65.2148 53.6885 69.9819C53.6068 70.1734 53.4977 70.2966 53.3886 70.4197C51.9497 72.0688 50.1731 71.9898 48.9675 70.1743C48.8373 69.9491 48.6522 69.5873 48.4678 69.6217C46.9918 69.5012 45.4749 69.4764 43.9784 69.4038C43.3391 71.1677 43.3666 71.2359 45.1502 71.4311C45.5876 71.4668 46.009 71.4957 46.4144 71.5178C47.3301 71.6256 48.191 71.5968 49.0863 71.7525C49.3665 71.7588 49.6269 72.2093 49.8732 72.4276C49.6071 72.6535 49.3206 72.9273 49.0679 72.9892C48.7469 73.0785 48.4189 73.0518 48.0909 73.025C46.5283 72.8864 44.9657 72.7478 43.4031 72.6092C43.1326 74.3041 43.1122 74.352 44.6839 74.5134C46.6111 74.7698 48.5243 74.7939 50.4445 74.9342C50.8204 74.9814 51.1012 75.384 51.4158 75.5748C51.0814 75.8282 50.8019 76.2181 50.4535 76.2391C49.8045 76.3017 49.1006 76.2278 48.4446 76.1742C46.7591 76.0586 45.0576 75.9362 43.3401 75.807C43.3089 77.604 43.3364 77.6722 44.9764 77.8061C46.1519 77.9682 47.409 77.9387 48.5845 78.1007C49.0287 78.1205 49.7262 78.4746 49.7402 78.7069C49.8098 79.472 49.0855 79.4459 48.5457 79.3853C46.9809 79.3401 45.4366 79.2471 43.8444 79.1336C43.8745 80.787 44.0596 81.1488 45.4814 81.5291C46.4999 81.7938 47.6135 81.7031 48.6728 81.8722C49.0966 81.9398 49.7462 82.2735 49.8081 82.5262C49.8777 83.2913 49.1738 83.2173 48.6136 83.2046C47.493 83.1792 46.2767 83.1129 44.7802 83.0402C46.0069 85.2041 47.0421 87.2863 48.3912 89.163C51.1719 93.1212 54.1299 96.9288 57.0472 100.832C57.9374 102.061 58.8277 103.289 59.5132 104.6C62.2754 109.795 64.1908 115.251 65.0342 121.098C65.0483 121.33 65.1651 121.719 65.4044 121.821C66.7311 122.557 68.1466 123.218 69.7331 124.007C69.5051 122.552 69.3187 121.398 69.1527 120.196C68.0718 111.192 65.5633 102.485 63.0344 93.8256C62.945 93.5046 62.4524 93.0681 62.1244 93.0414C58.2706 92.9248 55.6911 90.7496 54.1619 87.4383C53.4145 85.8749 53.3429 83.9209 53.046 82.0971C53.0045 81.7966 53.5367 81.3447 53.7479 80.9823C53.9809 81.3645 54.1864 81.6784 54.3511 82.0881C54.4334 82.293 54.3517 82.4844 54.3658 82.7167C54.4604 86.208 55.8588 88.8977 58.7931 90.7717C59.8601 91.4532 61.063 91.6835 62.4567 91.5991C62.1338 90.4996 61.8657 89.5367 61.5497 88.5533C60.4161 84.8451 59.3304 81.1574 58.2651 77.4218C58.1483 77.0325 58.4686 76.5469 58.5567 76.0753C58.8783 76.3822 59.3844 76.6546 59.5012 77.0439C60.3667 79.7891 61.1435 82.6097 61.9886 85.4028C62.5522 87.3969 63.2319 89.3841 63.8709 91.467ZM64.2079 92.7987C64.3521 93.2563 64.4211 93.6251 64.5104 93.9461C66.6896 101.834 69.0736 109.64 70.1736 117.803C70.4092 119.77 70.7814 121.683 71.0648 123.67C71.2231 124.36 71.5722 124.735 72.2557 124.857C73.9985 125.148 75.7075 125.651 77.4158 125.757C82.117 126.009 81.2166 126.926 82.8966 122.325C86.1269 113.294 88.9539 104.147 91.9245 95.0617C92.0675 94.7266 92.1147 94.3508 92.2097 93.9953C89.3387 93.1666 89.3387 93.1666 87.1414 90.7584C86.9429 90.5605 86.4305 90.5682 86.082 90.5893C84.033 91.0164 82.1262 90.7121 80.4503 89.6012C79.7937 89.1513 79.4178 89.1042 78.742 89.4947C75.8411 91.2556 72.8355 91.6706 69.8463 89.66C69.607 89.5579 69.0742 89.6134 68.8763 89.8119C67.6078 91.1942 66.1063 92.1943 64.2079 92.7987ZM90.5651 131.932C90.3329 131.947 90.2167 131.954 90.0802 132.008C86.3516 133.19 82.716 132.827 79.032 132.047C78.6765 131.952 78.4436 131.57 78.1698 131.284C78.5316 131.099 78.859 130.729 79.2552 130.728C79.8838 130.714 80.5264 130.931 81.162 131.033C84.1352 131.622 87.1619 131.556 90.0367 130.519C90.4259 130.402 90.685 130.06 91.0194 129.807C79.9133 131.971 69.9874 128.981 60.2637 124.324C60.094 124.987 60.7436 125.321 61.2975 125.614C63.7455 126.771 66.1935 127.928 68.6415 129.086C69.1201 129.29 69.824 129.364 69.4974 130.13C69.4157 130.321 68.6301 130.439 68.2747 130.344C67.1126 130.018 66.0392 129.616 64.9588 129.099C63.3519 128.357 61.8063 127.471 60.2402 126.633C59.7783 128.247 59.881 128.404 61.0438 129.126C65.5442 131.838 70.4184 133.408 75.551 134.24C79.9728 134.881 84.4424 135.543 88.8678 134.32C90.541 133.846 90.5206 133.893 90.5651 131.932ZM57.9788 138.963C57.9333 138.981 57.8969 139.022 57.8697 139.086C58.3553 139.407 58.8001 139.823 59.3266 140.047C61.3094 140.836 63.2513 141.721 65.3157 142.319C70.4427 143.828 75.7731 144.461 81.11 144.814C83.5904 144.967 86.1385 144.696 88.6937 144.542C89.1582 144.514 89.6087 144.253 90.0388 144.041C87.8111 143.826 85.6452 143.864 83.5406 143.758C82.4974 143.728 81.4656 143.627 80.4449 143.455C80.1648 143.449 80.0001 143.039 79.7538 142.821C80.0199 142.595 80.2789 142.253 80.5795 142.212C81.1124 142.156 81.6592 142.333 82.1717 142.325C84.857 142.396 87.5423 142.467 90.1593 142.565C90.2678 142.045 90.322 141.785 90.3558 141.574C90.3896 141.362 90.3756 141.129 90.3615 140.897C84.8711 142.628 79.4104 141.77 74.0384 140.836C68.639 139.833 63.1242 139.235 58.3768 135.908C58.0093 136.77 58.0444 137.351 58.9468 137.622C61.2371 138.486 63.5 139.282 65.7904 140.146C66.3852 140.343 67.5874 140.177 67.2544 141.223C66.9826 142.125 66.0183 141.601 65.3757 141.383C62.9283 140.622 60.4536 139.793 57.9788 138.963ZM79.7284 86.9172C80.0966 86.452 80.4514 86.1508 80.6147 85.7679C81.3434 84.325 82.1882 82.8751 82.698 81.2822C83.7584 78.0008 84.1353 74.5976 83.3916 71.1689C83.2952 70.7317 82.9257 70.4044 82.7132 69.9743C82.331 70.2072 81.853 70.3994 81.5939 70.7414C78.2331 75.3044 77.4422 80.3413 79.1457 85.7635C79.2829 86.1049 79.4406 86.3984 79.7284 86.9172ZM88.5266 126.367C87.9944 126.819 87.6262 127.284 87.2299 127.285C86.0959 127.424 84.9683 127.282 83.8752 127.325C77.1524 127.568 70.6598 126.609 64.8053 123.093C64.3675 122.793 63.7453 122.528 63.4849 122.077C63.2723 121.647 63.4216 121.032 63.4273 120.356C62.6967 120.61 62.0068 120.768 61.3515 121.111C60.5117 121.488 60.3624 122.103 61.074 122.69C61.7652 123.324 62.4971 123.862 63.3382 124.278C67.6465 126.512 72.349 127.556 77.0241 128.532C80.8243 129.305 84.7055 129.489 88.5988 128.718C89.2204 128.587 89.8145 128.388 90.429 128.141C90.6542 128.01 91.009 127.709 90.995 127.477C90.9809 127.245 90.6114 126.917 90.3517 126.863C89.7091 126.645 89.0256 126.524 88.5266 126.367ZM86.63 136.25C78.2333 136.572 70.2028 135.239 62.64 131.617C62.1168 133.374 62.2336 133.763 63.7173 134.396C64.9343 134.859 66.1991 135.342 67.4569 135.709C72.2967 137.094 77.333 137.489 82.3143 137.747C83.6946 137.827 85.1158 137.811 86.4891 137.774C86.5841 137.419 86.6179 137.207 86.6313 137.043C86.6377 136.763 86.6236 136.531 86.63 136.25ZM61.1308 132.105C60.5571 132.256 60.2361 132.345 59.963 132.455C58.6178 132.956 58.4003 133.599 59.3518 134.684C59.9747 135.345 60.7953 135.809 61.6364 136.224C64.9051 137.845 68.5068 138.419 72.0199 139.069C76.9477 139.984 81.8959 140.85 86.9921 140.308C88.2901 140.183 89.5536 139.874 90.6109 138.854C89.886 138.431 89.1476 138.173 88.3684 138.01C88.2248 137.949 87.9792 138.127 87.9179 138.271C87.5434 139.016 86.9422 139.099 86.3137 139.114C81.2239 139.375 76.2693 138.789 71.3689 137.943C68.6829 137.476 66.0646 136.585 63.5215 135.784C61.9287 135.274 60.5949 134.422 61.1308 132.105ZM69.1518 87.0443C70.6577 84.5752 71.2274 82.0462 70.8743 79.2932C70.8054 78.9244 70.6886 78.5352 70.5035 78.1733C70.0031 77.2245 69.395 77.1913 68.6994 78.026C66.8656 80.4683 66.9954 84.5403 69.1518 87.0443ZM78.8849 146.184C74.5997 145.488 70.3419 144.859 66.0568 144.163C68.9465 147.998 74.8788 148.944 78.8849 146.184ZM90.3607 79.2333C88.2715 80.1523 86.6484 86.0789 87.8068 88.2702C90.5571 86.332 91.9498 81.6083 90.3607 79.2333ZM82.9096 126.008C84.071 125.938 85.1641 125.895 86.2298 125.784C86.4621 125.77 86.8169 125.468 86.8711 125.209C87.157 124.539 87.3197 123.759 87.5232 122.884C87.0312 122.844 86.6349 122.845 86.2998 122.702C85.9648 122.559 85.7593 122.245 85.4651 122.006C85.8269 121.821 86.1134 121.548 86.4548 121.41C86.5914 121.355 86.7828 121.437 86.9947 121.471C88.375 121.551 88.5728 121.352 88.6933 119.876C87.6544 119.659 86.6359 119.394 85.5491 119.157C84.7261 121.352 83.8347 123.574 82.9096 126.008Z" fill="#FFC400"/>
<path d="M112.81 69.9717C112.927 70.361 113.133 70.6749 113.154 71.0234C113.265 72.0891 113.376 73.1548 113.323 74.2071C113.258 75.8197 113.096 77.3914 112.839 78.9223C112.751 79.3939 112.329 80.1189 112.049 80.1125C111.276 80.066 111.467 79.3551 111.527 78.8152C111.648 77.7355 111.838 76.6283 111.863 75.5077C111.888 73.9908 111.817 72.4331 111.794 70.8958C111.752 70.5953 111.895 70.2602 112.066 69.9935C112.127 69.8499 112.53 69.9654 112.81 69.9717Z" fill="#FFC400"/>
<path d="M108.367 68.1891C108.607 68.6875 108.887 69.0901 108.984 69.5272C109.336 71.8839 109.668 74.2884 109.952 76.6725C109.946 76.9526 109.523 77.2813 109.332 77.5959C109.106 77.3298 108.696 77.0982 108.654 76.7977C108.516 75.6637 108.493 74.5227 108.314 73.4844C108.086 72.0295 107.674 70.609 107.378 69.1815C107.336 68.8809 107.404 68.4572 107.554 68.2383C107.663 68.1151 108.066 68.2306 108.367 68.1891Z" fill="#FFC400"/>
<path d="M69.716 105.614C69.8794 105.231 69.9949 104.828 70.2131 104.582C70.3701 104.479 70.7938 104.546 71.0331 104.649C75.2169 105.981 79.5422 106.185 83.9077 105.898C84.0717 105.911 84.3449 105.801 84.5159 105.931C84.7552 106.033 85.0698 106.224 85.1043 106.408C85.1183 106.641 84.8797 106.935 84.7023 107.085C84.4771 107.216 84.1286 107.237 83.8281 107.278C79.4147 107.545 74.9732 107.348 70.6937 105.975C70.4544 105.873 70.2151 105.77 69.716 105.614Z" fill="#FFC400"/>
<path d="M72.8515 109.667C72.7691 109.463 72.6319 109.121 72.6861 108.861C72.7678 108.67 73.2662 108.43 73.4576 108.512C75.5635 109.41 77.8111 109.181 80.0522 109.232C80.3324 109.238 80.7012 109.169 80.9884 109.292C81.2277 109.394 81.5698 109.653 81.5838 109.885C81.5979 110.117 81.2501 110.535 81.0383 110.501C78.4895 110.375 75.9133 110.182 73.3575 109.94C73.2414 109.947 73.1182 109.838 72.8515 109.667Z" fill="#FFC400"/>
<path d="M83.9448 26.7701C83.742 22.6481 83.5393 18.5261 83.3365 14.4042C83.2733 13.3589 81.6543 13.5734 81.7176 14.6187C81.9203 18.7407 82.1299 22.8467 82.3463 26.9367C82.3891 28.0299 84.0081 27.8154 83.9448 26.7701Z" fill="#FFC400"/>
<path d="M58.2598 37.6495C55.5079 34.5521 53.0629 31.1331 51.1163 27.4741C50.9517 27.0644 50.5413 26.8328 50.0838 26.977C49.722 27.1621 49.4495 27.6682 49.6142 28.0779C51.6157 31.8734 54.0676 35.4086 56.9906 38.6355C57.6683 39.4337 58.9375 38.4477 58.2598 37.6495Z" fill="#FFC400"/>
<path d="M39.0399 62.1492C34.9425 60.703 30.9972 58.9445 27.2039 56.8738C26.2875 56.3697 25.6341 57.9013 26.5505 58.4054C30.3893 60.4578 34.3346 62.2163 38.3865 63.6808C39.3642 64.0413 40.0175 62.5097 39.0399 62.1492Z" fill="#FFC400"/>
<path d="M35.1181 90.5725C30.8328 91.1582 26.5402 91.4956 22.2404 91.5848C21.2156 91.6002 21.3822 93.1988 22.4549 93.2038C26.7411 93.1465 31.0109 92.8182 35.2643 92.219C36.3504 92.06 36.1359 90.441 35.1181 90.5725Z" fill="#FFC400"/>
<path d="M122.68 39.2773C122.426 38.9429 121.859 38.814 121.525 39.0674C118.937 41.5087 116.349 43.95 113.761 46.3912C113.407 46.6925 113.319 47.1641 113.552 47.5463C113.805 47.8807 114.372 48.0095 114.727 47.7083C117.315 45.267 119.918 42.8325 122.538 40.4049C122.845 40.0832 122.981 39.6321 122.68 39.2773Z" fill="#FFC400"/>
<path d="M141.948 84.5516C136.918 83.6126 131.91 82.6644 126.925 81.7071C125.866 81.5381 125.636 83.1373 126.675 83.3542C131.674 84.2796 136.681 85.2278 141.698 86.1987C142.757 86.3677 142.939 84.7481 141.948 84.5516Z" fill="#FFC400"/>
<path d="M122.885 121.281C119.584 118.854 116.361 116.329 113.218 113.706C112.431 113.031 111.436 114.304 112.223 114.979C115.366 117.602 118.581 120.143 121.87 122.602C122.725 123.249 123.741 121.929 122.885 121.281Z" fill="#FFC400"/>
<path d="M34.9123 78.3222C34.9799 77.8984 34.6991 77.4958 34.2275 77.4078L29.0949 76.576C28.6711 76.5084 28.2002 76.8166 28.1805 77.2608C28.1403 77.7528 28.4211 78.1554 28.8448 78.223L33.9979 79.007C34.4216 79.0746 34.8926 78.7663 34.9123 78.3222Z" fill="#FFC400"/>
<path d="M43.6421 48.046C42.9446 47.6919 42.3906 47.399 41.734 46.9492C41.0864 46.5221 40.4753 46.054 39.9005 45.5448C39.5584 45.2857 39.0256 45.3412 38.7665 45.6833C38.487 46.0732 38.563 46.5582 38.8846 46.8651C40.1846 47.9288 41.5663 48.8011 42.9887 49.5776C43.3716 49.741 43.9179 49.5214 44.0812 49.1385C44.2171 48.6873 44.0524 48.2777 43.6421 48.046Z" fill="#FFC400"/>
<path d="M68.5104 30.5947C68.2913 30.3127 68.1018 30.0056 67.9418 29.6733C67.8916 29.6142 67.8482 29.5391 67.8116 29.448C67.7797 29.4344 67.7546 29.4049 67.7363 29.3594C67.6495 29.2092 67.5695 29.043 67.4963 28.861C67.1627 28.2284 66.8815 27.5615 66.6525 26.8604C66.5357 26.4712 66.0093 26.2466 65.5996 26.4113C65.1899 26.5759 64.9857 27.0546 65.1504 27.4642C65.6584 28.9256 66.3031 30.332 67.1934 31.5603C67.4263 31.9426 68.014 32.0236 68.3005 31.7498C68.6553 31.4486 68.7434 30.977 68.5104 30.5947Z" fill="#FFC400"/>
<path d="M67.811 29.4482C67.8385 29.5165 67.8181 29.5644 67.811 29.4482V29.4482Z" fill="#FFC400"/>
<path d="M104.099 33.1045C104.452 31.7465 104.796 30.3657 105.13 28.9622C105.246 28.5589 104.869 28.1154 104.446 28.0478C103.954 28.0076 103.647 28.3293 103.511 28.7804C103.158 30.1384 102.821 31.5032 102.5 32.8748C102.364 33.326 102.74 33.7695 103.164 33.8371C103.656 33.8773 103.963 33.5556 104.099 33.1045Z" fill="#FFC400"/>
<path d="M131.276 60.3684C131.18 59.9313 130.831 59.556 130.346 59.632C128.823 59.8874 127.266 60.3546 125.811 60.9788C125.449 61.1639 125.177 61.67 125.342 62.0796C125.527 62.4414 125.985 62.6935 126.395 62.5288C127.091 62.2225 127.79 61.9548 128.491 61.7259C128.659 61.6846 128.828 61.6433 128.996 61.6021C129.042 61.5838 129.103 61.5723 129.181 61.5676C129.272 61.531 129.356 61.5104 129.433 61.5057C129.816 61.4048 130.192 61.3199 130.56 61.251C130.977 61.2025 131.325 60.7851 131.276 60.3684Z" fill="#FFC400"/>
<path d="M127.72 99.074C127.788 98.6503 127.527 98.1997 127.035 98.1596C126.329 98.0469 125.62 97.8955 124.91 97.7054C124.91 97.7054 124.65 97.6511 124.793 97.7124C124.698 97.6715 124.618 97.6375 124.554 97.6103C124.349 97.5605 124.167 97.5016 124.007 97.4336C123.643 97.3157 123.301 97.1888 122.982 97.0526C122.578 96.9372 122.053 97.1089 121.889 97.4918C121.753 97.9429 121.898 98.4005 122.328 98.5842C123.785 99.1489 125.302 99.57 126.806 99.7588C127.229 99.8264 127.7 99.5181 127.72 99.074Z" fill="#FFC400"/>
</svg>
