<svg width="1920" height="162" viewBox="0 0 1920 162" fill="none" xmlns="http://www.w3.org/2000/svg">
<path d="M0 0H1920V135.176C1913.51 136.612 1906.94 137.509 1900.29 137.868C1865.47 140.021 1830.14 126.024 1805.31 100.723C1778.69 131.677 1739.52 137.599 1707.26 113.374C1682.43 133.292 1647.87 141.367 1617.15 134.638C1586.43 128.178 1559.04 106.913 1543.68 78.3817C1531.39 104.76 1491.46 110.951 1475.84 86.4567C1472.77 105.837 1456.13 123.871 1438.21 130.331C1420.29 136.791 1399.04 131.946 1385.22 118.757C1359.62 146.212 1333.5 163.977 1296.9 161.824C1260.29 159.67 1224.96 140.29 1202.43 109.874C1185.02 127.37 1156.61 141.905 1133.06 136.791C1109.76 131.408 1089.28 113.374 1080.32 89.9559C1063.94 119.564 1041.41 145.135 1009.66 150.788C977.664 156.44 943.36 146.481 918.784 124.409C905.472 141.098 882.944 147.827 862.208 146.481C841.728 145.405 822.016 133.292 810.496 114.989C784.64 142.174 744.96 159.67 708.864 154.556C672.768 149.442 639.232 126.024 621.056 92.6476C595.456 119.834 554.496 126.024 525.568 102.607C503.296 130.331 470.272 143.52 435.968 144.866C401.408 146.212 366.592 131.946 342.528 106.106C315.136 130.869 273.408 128.985 253.184 97.7618C228.608 126.832 188.928 145.405 152.064 142.444C114.944 139.483 79.872 117.142 60.16 84.3034C39.68 93.9934 19.456 98.0309 0 96.1468V0Z" fill="#FFF0F3"/>
</svg>
