<svg width="1920" height="374" viewBox="0 0 1920 374" fill="none" xmlns="http://www.w3.org/2000/svg">
<path d="M-150.116 176.434C-174.035 159.662 -179.813 126.701 -163.02 102.813C-146.227 78.9249 -113.223 73.1552 -89.3043 89.9269C-98.6073 75.3825 -94.3416 56.0616 -79.7799 46.7714C-65.2168 37.4811 -45.8709 41.7399 -36.5687 56.2842C-25.7782 18.2764 13.8197 -3.80001 51.8773 6.97584C89.9335 17.7517 112.038 57.2993 101.249 95.3071C142.397 83.2654 185.528 106.818 197.586 147.912C208.117 183.805 191.454 221.201 159.653 238.118C160.932 238.438 162.195 238.886 163.382 239.604C168.473 242.687 170.721 248.599 169.452 254.093C182.743 221.207 219.475 203.863 253.626 215.225C289.139 227.04 308.336 265.368 296.507 300.834C304.384 279.659 327.959 268.872 349.161 276.739C370.364 284.606 381.165 308.151 373.288 329.326C393.021 301.708 431.435 295.297 459.087 315.005C480.701 330.41 489.27 357.199 482.59 381.358C497.867 359.351 525.906 348.296 553.174 355.932C565.679 359.434 576.255 366.404 584.233 375.472C587.01 367.503 591.514 360 597.88 353.625C620.508 330.963 657.246 330.912 679.938 353.51C690.825 335.091 714.603 328.974 733.046 339.848C735.287 341.169 737.339 342.687 739.208 344.357C742.634 309.481 764.5 277.496 799.047 262.765C828.72 250.111 861.125 253.018 887.163 267.804C901.647 239.927 929.86 219.996 963.525 217.584C1012.24 214.094 1054.88 248.529 1062.51 295.784C1063.04 286.059 1069.51 277.248 1079.38 274.238C1092.02 270.386 1105.38 277.491 1109.24 290.108C1110.21 257.379 1137.56 231.629 1170.33 232.595C1189.51 233.16 1206.25 242.793 1216.68 257.218C1215.14 229.069 1228.79 201.018 1254.64 185.422C1291.93 162.917 1340.43 174.865 1362.96 212.109C1389.16 196.49 1422.31 202.843 1441.14 225.665C1458.67 196.832 1487.65 175.049 1523.34 167.656C1589.38 153.973 1654.07 194.563 1670.97 258.982C1669.22 245.067 1677.29 231.32 1691.06 226.428C1704.23 221.754 1718.45 226.644 1726.18 237.464C1711.86 206.167 1722.79 168.411 1752.9 149.956C1775.06 136.374 1801.85 136.781 1823.02 148.657C1801.14 117.994 1799.03 75.8481 1820.95 42.4732C1849.48 -0.958487 1907.86 -13.0699 1951.35 15.4222C2006.43 21.897 2045.83 71.7401 2039.34 126.75C2033.84 173.439 1997.05 208.828 1952.37 214.511C1968.67 218.7 1982.31 231.266 1986.99 248.653C1992.95 270.795 1982.42 293.449 1962.94 303.723C2013.88 286.462 2070.64 310.223 2093.42 360.156C2117.72 413.393 2094.2 476.218 2040.89 500.48C2085.66 513.847 2111.1 560.927 2097.71 605.636C2084.33 650.344 2037.19 675.751 1992.42 662.384C1975.91 675.963 1951.55 673.668 1937.85 657.312C1925.01 691.995 1894.52 719.078 1855.4 725.733C1797.12 735.647 1741.83 696.5 1731.9 638.295C1724.77 653.992 1706.24 660.94 1690.52 653.816C1678.75 648.479 1671.9 636.76 1672.19 624.618C1665.66 641.144 1648.92 652.236 1630.25 650.806C1615.26 649.658 1602.77 640.698 1596.38 628.249C1599.36 668.31 1575.06 706.841 1535.19 720.249C1487.97 736.124 1436.81 710.769 1420.92 663.619C1411.82 703.336 1372.2 728.166 1332.43 719.076C1292.66 709.986 1267.8 670.42 1276.9 630.702C1263.31 653.932 1233.43 661.76 1210.17 648.185C1198.83 641.563 1191.18 631.061 1187.88 619.354C1176.04 653.799 1144.66 679.703 1106 682.707C1054.09 686.74 1008.74 647.985 1004.7 596.147C1004.23 622.384 982.544 643.268 956.272 642.792C930.001 642.316 909.091 620.66 909.568 594.422C907.021 633.868 872.937 663.784 833.442 661.24C810.471 659.761 790.787 647.589 778.788 629.937C777.53 633.046 775.879 636.051 773.743 638.846C760.902 655.643 736.859 658.865 720.039 646.042C724.763 697.97 686.442 743.889 634.448 748.607C582.453 753.324 536.474 715.052 531.75 663.125C525.838 680.964 506.565 690.639 488.702 684.735C470.839 678.83 461.151 659.582 467.064 641.742C449.955 684.858 401.087 705.959 357.916 688.872C325.468 676.029 305.483 645.271 304.814 612.477C294.392 636.193 271.387 653.384 243.722 654.98C204.45 657.244 170.776 627.284 168.509 588.064C164.772 627.211 129.966 655.921 90.7686 652.189C62.617 649.509 39.933 630.789 30.7245 605.969C28.0204 628.337 13.5327 648.59 -8.87346 657.595C-41.6208 670.756 -78.8503 654.912 -92.0275 622.206C-126.644 614.789 -148.685 580.75 -141.258 546.178C-135.988 521.647 -117.275 503.505 -94.4947 497.648C-121.242 492.614 -143.857 472.409 -150.495 444.246C-159.479 406.133 -135.823 367.964 -97.6615 358.993C-148.139 373.46 -200.802 344.321 -215.287 293.909C-229.771 243.496 -200.594 190.901 -150.116 176.434Z" fill="white"/>
</svg>
