<svg width="1920" height="591" viewBox="0 0 1920 591" fill="none" xmlns="http://www.w3.org/2000/svg">
<path d="M0 0H1920V564.176C1913.51 565.612 1906.94 566.509 1900.29 566.868C1865.47 569.021 1830.14 555.024 1805.31 529.723C1778.69 560.677 1739.52 566.599 1707.26 542.374C1682.43 562.292 1647.87 570.367 1617.15 563.638C1586.43 557.178 1559.04 535.913 1543.68 507.382C1531.39 533.76 1491.46 539.951 1475.84 515.457C1472.77 534.837 1456.13 552.871 1438.21 559.331C1420.29 565.791 1399.04 560.946 1385.22 547.757C1359.62 575.212 1333.5 592.977 1296.9 590.824C1260.29 588.67 1224.96 569.29 1202.43 538.874C1185.02 556.37 1156.61 570.905 1133.06 565.791C1109.76 560.408 1089.28 542.374 1080.32 518.956C1063.94 548.564 1041.41 574.135 1009.66 579.788C977.664 585.44 943.36 575.481 918.784 553.409C905.472 570.098 882.944 576.827 862.208 575.481C841.728 574.405 822.016 562.292 810.496 543.989C784.64 571.174 744.96 588.67 708.864 583.556C672.768 578.442 639.232 555.024 621.056 521.648C595.456 548.834 554.496 555.024 525.568 531.607C503.296 559.331 470.272 572.52 435.968 573.866C401.408 575.212 366.592 560.946 342.528 535.106C315.136 559.869 273.408 557.985 253.184 526.762C228.608 555.832 188.928 574.405 152.064 571.444C114.944 568.483 79.872 546.142 60.16 513.303C39.68 522.993 19.456 527.031 0 525.147V0Z" fill="#FFF1E3"/>
</svg>
