<svg width="1920" height="846" viewBox="0 0 1920 846" fill="none" xmlns="http://www.w3.org/2000/svg">
<path d="M0 846H1920V25.5076C1913.51 24.1425 1906.94 23.2893 1900.29 22.948C1865.47 20.9004 1830.14 34.2103 1805.31 58.2705C1778.69 28.8351 1739.52 23.204 1707.26 46.2404C1682.43 27.2994 1647.87 19.6206 1617.15 26.0196C1586.43 32.1626 1559.04 52.3835 1543.68 79.5152C1531.39 54.4311 1491.46 48.5441 1475.84 71.8364C1472.77 53.4073 1456.13 36.258 1438.21 30.1149C1420.29 23.9719 1399.04 28.5792 1385.22 41.1212C1359.62 15.0133 1333.5 -1.88008 1296.9 0.167597C1260.29 2.21528 1224.96 20.6444 1202.43 49.5679C1185.02 32.9305 1156.61 19.1086 1133.06 23.9719C1109.76 29.0911 1089.28 46.2404 1080.32 68.5089C1063.94 40.3533 1041.41 16.0371 1009.66 10.662C977.664 5.2868 943.36 14.7573 918.784 35.7461C905.472 19.8765 882.944 13.4775 862.208 14.7573C841.728 15.7812 822.016 27.2994 810.496 44.7047C784.64 18.8527 744.96 2.21528 708.864 7.07852C672.768 11.9418 639.232 34.2103 621.056 65.9493C595.456 40.0974 554.496 34.2103 525.568 56.4788C503.296 30.1149 470.272 17.5729 435.968 16.2931C401.408 15.0133 366.592 28.5792 342.528 53.1513C315.136 29.603 273.408 31.3947 253.184 61.0861C228.608 33.4424 188.928 15.7812 152.064 18.5967C114.944 21.4123 79.872 42.657 60.16 73.8841C39.68 64.6695 19.456 60.8301 0 62.6219V846Z" fill="#FFF1E3"/>
</svg>
