<svg width="118" height="68" viewBox="0 0 118 68" fill="none" xmlns="http://www.w3.org/2000/svg">
<path fill-rule="evenodd" clip-rule="evenodd" d="M90.3953 29.8863C86.967 32.0146 83.5827 34.1385 80.2423 36.2578C79.5302 36.6862 79.0992 36.8191 78.3278 36.231C74.8633 33.6504 71.3638 31.1623 67.8158 28.6347C67.7718 28.6392 67.7234 28.5997 67.7718 28.6392C59.9096 36.1107 52.1353 43.5732 44.1106 51.1946C44.8325 51.2987 45.2905 51.4298 45.7395 51.4729C50.9729 51.7833 56.2062 52.0938 61.4001 52.4527C70.7929 53.0054 80.1857 53.5581 89.5434 54.2033C96.0798 54.6475 102.634 55.2677 109.179 55.7998C109.399 55.7774 109.58 55.8034 109.76 55.8294C110.258 55.912 111.006 55.8357 110.906 56.6016C110.807 57.3676 110.111 57.083 109.618 57.0444C98.4595 56.1829 87.2438 55.1939 76.0506 54.4249C68.0838 53.9044 60.0209 53.7495 52.0586 53.273C48.7047 53.0819 45.4028 52.5298 42.1144 52.1097C41.5289 52.0361 41.2425 51.8431 41.0736 51.0601C40.1575 46.441 41.0723 41.9017 41.0056 37.3292C40.9181 29.0688 40.9186 20.7994 40.8706 12.4905C40.8634 11.113 40.8121 9.74005 40.8444 8.31408C40.8659 8.08958 41.2745 7.73666 41.5385 7.70971C42.1985 7.64233 42.916 7.70246 43.5894 7.76708C60.491 8.70913 77.3531 9.69967 94.2548 10.6417C100.025 10.9863 105.826 11.1943 111.592 11.4949C112.168 11.4805 113.088 11.3421 113.203 11.5971C113.49 12.2347 113.571 13.0267 113.515 13.7882C113.201 19.422 112.799 25.0649 112.485 30.6988C112.061 38.3001 111.632 45.8574 111.208 53.4587C111.2 53.8152 111.28 54.1627 111.228 54.5237C111.211 54.7922 111.119 55.2017 110.991 55.2592C110.732 55.3301 110.283 55.2871 110.085 55.085C109.635 54.5974 109.273 54.1009 108.946 53.5118C104.207 45.4151 98.6903 37.9757 92.0531 31.3176C91.5592 30.8345 91.0302 30.4439 90.3953 29.8863ZM43.7152 8.99909C44.0151 9.32414 44.1166 9.44715 44.2621 9.56568C46.9642 11.6461 49.6708 13.7706 52.4169 15.8466C59.8864 21.3675 67.3545 26.8738 74.8211 32.3654C76.0729 33.3046 77.3552 34.1074 78.6816 34.9056C78.968 35.0986 79.549 35.1282 79.7995 34.9693C86.2432 31.0215 92.7353 27.1132 99.0245 22.9589C103.358 20.1158 107.426 16.855 111.601 13.7613C111.891 13.5539 112.084 13.2674 112.528 12.822C89.4552 11.5318 66.6997 10.2982 43.7152 8.99909ZM41.8827 50.7107C42.4511 51.0528 42.7941 50.9289 43.2772 50.435C46.0177 47.6655 48.8551 44.9751 51.6531 42.3331C55.6632 38.5004 59.7219 34.7072 63.688 30.8789C64.7467 29.9261 65.6553 28.8108 66.617 27.779C58.4407 21.7226 50.4054 15.7407 42.1806 9.6448C42.2259 16.6202 42.3851 23.4062 42.3199 30.1706C42.2636 37.023 42.0269 43.8493 41.8827 50.7107ZM109.978 52.7395C111.4 40.1014 111.013 27.6035 112.255 14.9394C105.515 20.3401 98.6501 24.9533 91.5689 29.1885C98.9416 36.0827 104.653 44.1247 109.978 52.7395Z" fill="#181818"/>
<path d="M3.46108 31.0255C3.19348 30.7268 2.91269 30.4442 2.61874 30.1779C3.00127 30.0054 3.36583 29.657 3.76633 29.6606C13.5712 29.4598 23.3761 29.2591 33.1811 29.0584C33.806 29.0835 34.4176 28.9766 35.047 29.0457C35.364 29.1023 35.664 29.4274 35.9944 29.6159C35.7044 29.8234 35.4233 30.1188 35.0758 30.1987C34.7328 30.3227 34.3278 30.2751 33.9273 30.2715C24.0197 30.4827 14.1107 30.6793 4.2001 30.8611C4.0241 30.8791 3.83194 30.8839 3.62361 30.8755C3.56793 30.9108 3.51376 30.9608 3.46108 31.0255Z" fill="#181818"/>
<path d="M16.5973 13.8128C14.9923 13.7692 13.3873 13.7256 11.7823 13.6819C11.5139 13.6649 11.2104 13.7403 11.0209 13.6263C10.7389 13.4772 10.571 13.1387 10.3725 12.9367C10.6185 12.7337 10.8951 12.3943 11.1636 12.4113C12.8976 12.4122 14.601 12.5495 16.3395 12.5943C19.7329 12.7369 23.0734 12.796 26.4228 12.9431C28.8787 13.048 31.3392 13.197 33.7996 13.3459C34.0681 13.363 34.3366 13.38 34.5261 13.4941C34.7156 13.6081 34.8305 13.8631 34.8485 14.0391C34.862 14.1711 34.6644 14.4136 34.5369 14.471C34.2774 14.542 34.0134 14.5689 33.7449 14.5519C29.2865 14.4291 24.8721 14.3018 20.4092 14.135C19.1592 14.0848 17.8957 13.9025 16.5928 13.7688C16.5958 13.7981 16.5973 13.8128 16.5973 13.8128Z" fill="#181818"/>
<path d="M13.4928 44.8064C12.9998 44.7678 12.4234 44.7822 11.9654 44.6511C11.6439 44.5506 11.432 44.2165 11.141 43.9795C11.4355 43.8161 11.7606 43.5161 12.0686 43.4847C13.3581 43.4864 14.6565 43.5761 15.9945 43.6174C22.0241 43.7428 28.0683 43.8667 34.1272 43.9892C34.3472 43.9667 34.6112 43.9398 34.8007 44.0538C34.9857 44.1238 35.2326 44.3654 35.2021 44.5019C35.2201 44.6779 35.0315 45.0083 34.86 45.0703C34.6095 45.2292 34.297 45.2167 33.9845 45.2041C27.5999 45.0853 21.2007 44.968 14.7868 44.8521C14.3702 44.8354 13.9388 44.8202 13.4928 44.8064Z" fill="#181818"/>
<path d="M30.1924 50.3038C32.6044 50.4132 34.6553 50.4706 36.6668 50.5764C36.9793 50.589 37.2837 50.958 37.6142 51.1466C37.3241 51.3541 37.0126 51.786 36.7001 51.7734C32.6287 51.5222 28.5573 51.271 24.4859 51.0197C24.3494 50.9892 24.1734 51.0072 24.1204 50.9237C23.8734 50.6821 23.622 50.3966 23.375 50.155C23.7136 49.9871 24.0431 49.7312 24.3556 49.7437C26.42 49.9331 28.5285 50.118 30.1924 50.3038Z" fill="#181818"/>
<path d="M28.2733 37.162C26.6096 37.1244 24.9475 37.1014 23.2868 37.0931C22.9304 37.085 22.5739 37.077 22.2919 36.9279C22.1024 36.8139 21.8905 36.4799 21.9165 36.2994C21.9381 36.0749 22.3071 35.7705 22.4876 35.7965C26.3255 35.9382 30.1194 36.0844 33.9619 36.2701C34.2304 36.2871 34.4998 36.7487 34.7907 36.9857C34.4962 37.1491 34.1271 37.4536 33.8587 37.4365C31.9792 37.3172 30.1348 37.1054 28.2948 36.9375C28.2715 36.9992 28.2643 37.074 28.2733 37.162Z" fill="#181818"/>
<path d="M24.2144 21.7939C23.9459 21.7768 23.6334 21.7642 23.444 21.6502C23.25 21.4922 22.9986 21.2066 23.0201 20.9821C23.0901 20.7972 23.4152 20.4972 23.6352 20.4748C27.1076 20.5204 30.6241 20.5615 34.1055 20.6952C34.418 20.7077 34.9954 21.1378 35.0224 21.4018C35.0502 22.1103 34.4513 21.9047 34.0068 21.9056C30.7382 21.8244 27.4711 21.7578 24.2054 21.7059C24.2084 21.7352 24.2114 21.7645 24.2144 21.7939Z" fill="#181818"/>
<path d="M45.4794 38.4733C45.4749 38.4293 45.2909 38.8038 45.1149 38.8218C44.8904 38.8002 44.5554 38.5677 44.4405 38.3126C44.286 38.1061 44.2941 37.7496 44.3111 37.4811C44.3002 34.3257 44.3288 31.1217 44.4059 27.9573C44.4139 27.6008 44.783 27.2963 45.011 26.9174C45.179 27.2559 45.5669 27.572 45.5544 27.8845C45.5482 31.3084 45.4981 34.7369 45.4794 38.4733Z" fill="#181818"/>
<path d="M48.722 31.9179C48.4496 32.1532 48.1787 32.4031 47.9093 32.6678C47.7459 32.3732 47.402 32.0527 47.375 31.7887C47.3552 30.7237 47.4719 29.6892 47.5006 28.6637C47.5634 27.1013 47.5866 25.5873 47.6979 24.0643C47.7105 23.7518 47.987 23.4124 48.1361 23.1304C48.3875 23.416 48.8105 23.6395 48.8859 23.9431C48.9668 24.7351 49.0036 25.5316 48.904 26.2975C48.7802 28.133 48.5638 29.9334 48.3915 31.7294C48.5178 31.8054 48.628 31.8682 48.722 31.9179Z" fill="#181818"/>
<path d="M45.4902 24.6453C45.4112 24.7423 45.2091 24.9407 44.9676 25.1877C44.7647 24.9417 44.3857 24.7136 44.3588 24.4496C44.268 23.1251 44.2652 21.7916 44.2185 20.4626C44.1556 19.8466 44.0927 19.2306 44.1178 18.6056C44.1349 18.3371 44.3324 18.0947 44.4815 17.8127C44.7239 18.0102 45.0454 18.1108 45.2483 18.3568C45.3983 18.5194 45.3813 18.7879 45.4037 19.0079C45.4119 20.8298 45.4596 22.6033 45.4902 24.6453Z" fill="#181818"/>
<path d="M109.79 29.9961C109.597 30.2825 109.492 30.56 109.338 30.798C107.904 32.8562 106.473 34.9584 104.99 36.9771C104.836 37.2151 104.396 37.26 104.053 37.3839C104.022 37.0759 103.845 36.6494 103.998 36.4114C105.516 34.1521 107.065 31.9044 108.645 29.6684C108.759 29.4789 109.155 29.4385 109.424 29.4555C109.56 29.486 109.636 29.7895 109.79 29.9961Z" fill="#181818"/>
<path d="M107.044 27.9199C106.869 28.3824 106.817 28.7434 106.624 29.0298C105.602 30.7791 104.625 32.5239 103.559 34.2777C103.405 34.5157 102.917 34.5211 102.618 34.6405C102.582 34.2885 102.453 33.9015 102.602 33.6196C103.005 32.7781 103.554 32.0553 104.006 31.2533C104.602 30.1255 105.194 28.9536 105.834 27.8212C105.943 27.5877 106.326 27.4153 106.629 27.3399C106.717 27.3309 106.938 27.7529 107.044 27.9199Z" fill="#181818"/>
</svg>
