<svg width="150" height="150" viewBox="0 0 150 150" fill="none" xmlns="http://www.w3.org/2000/svg">
<g style="mix-blend-mode:luminosity" clip-path="url(#clip0_48_874)">
<path d="M23.1954 74.2761H29.6461V83.3363C27.6334 83.9829 25.092 84.3376 22.4503 84.3376C11.7438 84.3376 5.45129 75.1693 5.45129 66.2152C5.45129 57.4332 11.143 51.2731 19.0837 51.2731C24.1085 51.2731 27.0322 52.9754 29.6479 55.3466V58.3025L34.5525 53.3979C31.4503 51.2991 26.9583 49.3044 20.5376 49.3044C6.44264 49.3044 0 59.3882 0 67.6752C0 79.4709 8.59158 86.5767 19.3883 86.5767C24.6234 86.5767 29.2716 85.7775 34.6408 84.2835V74.9229C34.6408 74.4443 34.8511 74.1158 35.1655 73.8275L36.8598 72.1332H25.3544L23.1954 74.2761Z" fill="url(#paint0_linear_48_874)"/>
<path d="M52.0923 61.9634C43.9794 61.9634 38.9526 67.8916 38.9526 74.184C38.9526 79.6154 43.0023 86.0639 51.2071 86.0639C59.0998 86.0639 63.9422 80.1241 63.9422 73.7214C63.9422 67.7574 59.2099 61.9656 52.0923 61.9656V61.9634ZM50.7463 63.6917C56.4662 63.6917 59.0134 71.1438 59.0134 76.4589C59.0134 84.3636 53.0835 84.5198 52.3745 84.5198C49.6609 84.5198 47.7642 82.8797 46.3445 80.7286C45.0948 78.7462 43.8732 75.0631 43.8732 71.4642C43.8732 67.8794 45.0466 66.129 46.8933 64.8413C48.4033 63.876 49.8172 63.6917 50.7443 63.6917H50.7463Z" fill="url(#paint1_linear_48_874)"/>
<path d="M105.126 61.9614C98.0404 61.9614 94.2072 66.4475 94.2072 71.4562C94.2072 75.2694 96.9389 79.5712 102.574 79.5712H104C104 79.5712 103.612 80.5144 103.61 81.4257C103.61 82.7697 104.093 83.5245 105.118 84.686C95.4207 85.2768 91.5234 89.1881 91.5234 93.3918C91.5234 97.0729 95.0484 100.696 102.456 100.696C111.226 100.696 115.768 95.827 115.768 91.0488C115.768 87.6803 114.09 85.8338 109.84 82.6495C108.59 81.6782 108.348 81.0596 108.348 80.3326C108.348 79.2912 108.971 78.602 109.199 78.3419C109.602 77.9173 110.299 77.4327 110.559 77.2004C111.987 75.9907 114.004 74.2005 114.004 70.6275C114.004 68.1762 112.984 66.0674 110.661 64.0927H113.497L115.628 61.9619H105.126V61.9614ZM103.172 63.5556C104.457 63.5556 105.531 64.0102 106.664 64.9535C107.922 66.087 109.931 69.1331 109.931 72.9022C109.931 76.9697 106.77 78.0831 105.06 78.0831C104.223 78.0831 103.22 77.8489 102.37 77.2681C100.484 76.0446 98.6112 72.788 98.6112 68.9128C98.6112 65.4161 100.694 63.5556 103.172 63.5556ZM105.977 86.2301C106.518 86.2301 106.907 86.2744 106.907 86.2744C106.907 86.2744 108.182 87.1856 109.073 87.8663C111.148 89.5065 112.442 90.7602 112.442 92.9935C112.442 96.0636 109.594 98.4708 104.982 98.4708C99.9191 98.4708 96.0497 96.1136 96.0497 92.2646C96.0497 89.0761 98.7013 86.3321 105.977 86.2301Z" fill="url(#paint2_linear_48_874)"/>
<path d="M117.162 85.3611H126.889L128.371 83.8793L125.581 83.5309C124.83 83.4387 124.384 82.7898 124.384 82.161V52.7794C124.384 52.2007 124.652 51.9042 124.848 51.7158L126.603 49.9614H118.307L116.148 52.1203H119.373V82.5553C119.373 82.9879 119.237 83.2823 118.944 83.5847L117.162 85.3611Z" fill="url(#paint3_linear_48_874)"/>
<path d="M140.069 61.9634C134.637 61.9634 128.868 66.103 128.868 73.535C128.868 79.673 133.007 86.0639 140.742 86.0639C142.67 86.0639 144.258 85.8157 145.746 85.1328C147.343 84.3978 148.879 83.2042 150 81.7042C147.883 82.7716 146.157 83.4726 143.864 83.4726C139.506 83.4726 135.304 80.3283 133.834 74.5485L149.229 68.3261C148.34 65.1559 145.832 61.9634 140.071 61.9634H140.069ZM139.063 63.6637C141.977 63.6637 144.084 66.0609 144.084 67.9374C144.084 68.5443 143.704 68.8647 142.95 69.1611L133.488 72.9882C133.488 72.9882 133.232 71.7967 133.232 70.5089C133.232 65.1076 137.137 63.6637 139.063 63.6637Z" fill="url(#paint4_linear_48_874)"/>
<path d="M79.6216 61.9634C71.5087 61.9634 66.4819 67.8916 66.4819 74.184C66.4819 79.6154 70.5316 86.0639 78.7364 86.0639C86.6291 86.0639 91.4715 80.1241 91.4715 73.7214C91.4715 67.7574 86.7392 61.9656 79.6216 61.9656V61.9634ZM78.2756 63.6917C83.9956 63.6917 86.5427 71.1438 86.5427 76.4589C86.5427 84.3636 80.6128 84.5198 79.9038 84.5198C77.1902 84.5198 75.2936 82.8797 73.8739 80.7286C72.6242 78.7462 71.4025 75.0631 71.4025 71.4642C71.4025 67.8794 72.5759 66.129 74.4226 64.8413C75.9326 63.876 77.3465 63.6917 78.2736 63.6917H78.2756Z" fill="url(#paint5_linear_48_874)"/>
</g>
<defs>
<linearGradient id="paint0_linear_48_874" x1="18.3383" y1="49.1989" x2="18.3383" y2="86.5747" gradientUnits="userSpaceOnUse">
<stop stop-color="#196EEF"/>
<stop offset="0.5" stop-color="#186DEE"/>
<stop offset="1" stop-color="#1065E7"/>
</linearGradient>
<linearGradient id="paint1_linear_48_874" x1="51.3566" y1="61.9063" x2="51.3566" y2="86.074" gradientUnits="userSpaceOnUse">
<stop stop-color="#DE5744"/>
<stop offset="0.5" stop-color="#DB4632"/>
<stop offset="1" stop-color="#D13D29"/>
</linearGradient>
<linearGradient id="paint2_linear_48_874" x1="103.557" y1="61.9063" x2="103.557" y2="100.711" gradientUnits="userSpaceOnUse">
<stop stop-color="#1A6FEF"/>
<stop offset="0.25" stop-color="#1E72EF"/>
<stop offset="0.5" stop-color="#166BEC"/>
<stop offset="0.75" stop-color="#1267E9"/>
<stop offset="1" stop-color="#1063E5" stop-opacity="0.87"/>
</linearGradient>
<linearGradient id="paint3_linear_48_874" x1="122.171" y1="49.8781" x2="122.171" y2="85.3952" gradientUnits="userSpaceOnUse">
<stop stop-color="#0AA561"/>
<stop offset="0.5" stop-color="#009B58"/>
<stop offset="1" stop-color="#00914B"/>
</linearGradient>
<linearGradient id="paint4_linear_48_874" x1="139.346" y1="61.9063" x2="139.346" y2="86.0075" gradientUnits="userSpaceOnUse">
<stop stop-color="#DE5644"/>
<stop offset="0.5" stop-color="#DA4531"/>
<stop offset="1" stop-color="#CE3A28"/>
</linearGradient>
<linearGradient id="paint5_linear_48_874" x1="78.8866" y1="61.9588" x2="78.8866" y2="86.0261" gradientUnits="userSpaceOnUse">
<stop stop-color="#FFC01A"/>
<stop offset="0.5" stop-color="#FFBA03"/>
<stop offset="1" stop-color="#FFB300"/>
</linearGradient>
<clipPath id="clip0_48_874">
<rect width="150" height="150" fill="white"/>
</clipPath>
</defs>
</svg>
