<svg width="107" height="121" viewBox="0 0 107 121" fill="none" xmlns="http://www.w3.org/2000/svg">
<path d="M13.4835 70.9728C10.3204 73.3181 11.3883 79.1686 11.5838 82.5658C11.8103 86.51 12.6958 93.3635 16.9229 95.1015C18.0058 95.5471 18.958 94.326 18.1355 93.4283C15.2695 90.3 14.4037 86.3812 13.8727 82.2791C13.5004 79.3971 12.7042 74.2487 14.5805 71.8414C15.1181 71.1514 14.0606 70.5461 13.4835 70.9728Z" fill="black"/>
<path d="M14.4622 72.2737C14.7001 70.3194 23.8039 67.4844 25.0315 66.9712C28.9955 65.314 33.0205 63.8382 37.1311 62.5908C46.4145 59.7737 55.3463 58.7274 65.0104 58.421C66.8368 58.3627 66.5256 55.6809 64.7641 55.6405C52.7763 55.367 41.4335 58.2481 30.2861 62.4338C25.6651 64.1691 21.3834 66.7493 16.7352 68.3417C14.9332 68.9583 13.0072 70.2612 13.4988 72.3235C13.6125 72.7963 14.403 72.7615 14.4622 72.2737Z" fill="black"/>
<path d="M64.1714 58.4088C66.9678 58.5104 67.9934 64.1212 68.5818 66.1863C69.6252 69.8429 69.4372 73.4459 69.9044 77.1692C70.0764 78.5397 72.103 78.4203 72.2638 77.1006C72.8409 72.3405 71.7449 67.7787 70.1488 63.3335C69.2191 60.7429 67.4284 56.5429 64.0492 57.0458C63.2605 57.1624 63.4053 58.3816 64.1714 58.4088Z" fill="black"/>
<path d="M38.039 87.8814C39.3963 89.5273 39.0636 92.5606 40.9915 93.6877C41.611 94.0505 42.5697 93.5843 42.5077 92.8107C42.4118 91.6075 41.5517 90.4513 41.0676 89.3299C40.6531 88.3692 40.2047 87.4621 39.4452 86.7242C38.6236 85.9252 37.2757 86.9555 38.039 87.8814Z" fill="black"/>
<path d="M39.0965 88.6173C40.0619 87.98 40.9342 87.2167 41.892 86.57C42.8715 85.9092 43.3998 85.6779 44.1038 86.7768C44.477 87.3596 44.6791 87.9377 45.1049 88.4913C45.463 88.9566 45.6219 89.5291 45.7093 90.0969C45.7639 90.4531 45.6191 91.5341 45.1124 91.5933C44.947 91.6121 44.1254 92.0915 43.8293 92.0633C44.3623 92.115 43.3951 91.7898 43.3161 91.7522C42.4767 91.3461 41.7116 92.1385 41.7332 92.9422C41.8084 95.7782 45.4574 94.5844 46.7696 93.5118C48.5453 92.0633 48.3968 89.3956 47.3092 87.6031C46.3692 86.054 45.1463 83.4868 42.9298 83.8271C40.9445 84.1326 39.6323 86.2429 38.2336 87.4818C37.6282 88.0176 38.4178 89.0647 39.0965 88.6173Z" fill="black"/>
<path d="M45.264 90.5734C46.5339 91.269 48.3029 91.3677 49.6227 90.6505C51.5403 89.609 54.8594 89.7368 57.0073 89.3035C59.0621 88.889 61.006 88.1501 63.0176 87.5889C67.8444 86.2419 73.5812 83.2763 72.9552 77.4652C72.8292 76.2959 70.9417 76.0975 70.6343 77.2622C69.2855 82.3767 65.6693 83.8684 61.0267 85.3198C58.3712 86.1498 55.8003 86.962 53.0772 87.5795C51.5835 87.9179 47.2295 89.8665 45.8402 89.4614C45.1925 89.2725 44.5994 90.2106 45.264 90.5734Z" fill="black"/>
<path d="M18.0914 96.9672C26.3529 96.3393 34.7706 94.7968 42.5067 91.7653C43.6262 91.3264 43.3828 89.6353 42.1289 89.672C37.8256 89.797 33.7686 92.0323 29.5931 92.9949C25.7194 93.8878 21.8128 94.7357 17.9269 95.5488C17.1363 95.7152 17.2726 97.0293 18.0914 96.9672Z" fill="black"/>
<path d="M18.1474 94.8194C17.2535 99.3981 17.5101 102.311 18.9088 106.904C19.9729 110.399 21.8265 113.585 23.4386 116.854C24.3062 118.611 25.1419 119.787 27.1487 119.375C27.9139 119.218 28.5231 118.358 27.9647 117.626C25.1353 113.919 22.5268 109.095 20.895 104.847C19.5283 101.286 19.1616 98.6696 19.4352 94.9237C19.4991 94.0712 18.3034 94.0223 18.1474 94.8194Z" fill="black"/>
<path d="M27.7822 120.181C29.7768 119.844 31.5074 120.836 33.3761 120.532C35.742 120.147 38.0995 119.743 40.4533 119.291C44.468 118.519 48.2138 117.268 52.0537 115.855C59.8575 112.984 67.3887 109.414 75.1004 106.312C77.0237 105.537 78.7768 105.465 80.4415 104.138C82.0179 102.882 81.9229 99.6933 81.9783 97.9345C82.0686 95.0459 81.2075 92.6348 79.8925 90.1034C78.7269 87.8587 78.0003 84.8959 75.6945 83.6128C74.8278 83.1306 73.6425 84.2651 74.3071 85.1074C77.6948 89.4013 80.0805 95.7039 79.1302 101.118C78.7645 103.202 75.5215 103.48 73.9367 104.072C70.8488 105.224 67.8333 106.616 64.8103 107.926C59.2446 110.336 53.6827 112.751 47.9995 114.873C44.7613 116.082 41.4609 116.889 38.0816 117.591C34.5962 118.314 30.887 118.017 27.5453 119.132C26.9719 119.322 27.1721 120.285 27.7822 120.181Z" fill="black"/>
<path d="M71.4455 82.6353C73.4468 83.5537 72.6101 86.9179 75.0551 87.4086C75.4245 87.4828 76.0036 87.2083 76.0007 86.7675C75.9942 85.5023 75.0457 83.9607 74.3961 82.8731C73.866 81.9848 73.0867 81.2657 72.0884 80.9621C70.984 80.6265 70.3899 82.1512 71.4455 82.6353Z" fill="black"/>
<path d="M67.7853 59.3055C69.9661 59.094 71.8912 57.5985 73.9479 56.8832C77.3507 55.7007 80.8033 55.7138 84.3273 55.2015C85.4412 55.0399 85.2269 53.486 84.2183 53.3394C81.3146 52.9183 78.5031 53.0912 75.6549 53.7558C74.3784 54.0528 73.0972 54.6554 71.8733 55.1216C70.2039 55.758 68.9594 57.0627 67.2702 57.5731C66.2287 57.889 66.819 59.3995 67.7853 59.3055Z" fill="black"/>
<path d="M84.3201 55.1677C86.9089 60.9261 89.0408 67.3378 90.6848 73.4251C91.5045 76.4585 91.5562 79.5482 91.8156 82.6606C92.0892 85.927 92.7302 89.3768 91.7207 92.569C91.2347 94.1059 93.6956 94.7752 94.3583 93.4037C95.758 90.5029 95.318 87.525 95.0623 84.3789C94.7456 80.4572 94.6385 76.7602 93.5988 72.9495C91.9125 66.7625 89.2626 59.7379 85.2883 54.6347C84.9114 54.1506 84.0532 54.5764 84.3201 55.1677Z" fill="black"/>
<path d="M81.2823 99.1697C85.7858 99.5721 90.5685 96.8846 93.3706 93.5072C94.2532 92.4431 92.7032 91.0905 91.6655 91.8782C88.5701 94.2282 85.2237 96.7756 81.2973 97.4505C80.3602 97.6112 80.2633 99.0786 81.2823 99.1697Z" fill="black"/>
<path d="M69.7235 73.6178C75.7592 73.7043 81.1538 70.8242 86.0456 67.5511C87.1519 66.8113 86.1978 65.1833 85.0115 65.7726C80.0719 68.2279 75.3108 71.5545 69.6822 72.0894C68.7055 72.1834 68.7328 73.6037 69.7235 73.6178Z" fill="black"/>
<path d="M81.4608 69.7686C81.8951 70.389 82.1028 71.0959 82.2927 71.8225C82.4694 72.4965 82.2974 73.3669 82.6048 73.976C82.9724 74.7036 83.6642 75.3071 84.0796 76.0337C84.5948 76.9314 85.0535 77.8601 85.5658 78.7616C85.9258 79.3951 87.0763 79.1037 86.9786 78.3385C86.7351 76.4435 86.0856 75.0608 84.8683 73.601C83.7506 72.2615 83.9321 70.2621 82.5963 68.9057C82.0398 68.3417 80.9852 69.0909 81.4608 69.7686Z" fill="black"/>
<path d="M10.4135 73.398C10.1192 74.9414 7.7749 76.233 6.69015 77.2801C5.77741 78.1618 4.87405 79.0492 3.98388 79.9535C3.32683 80.6199 2.4846 81.229 2.20166 82.1455C1.99016 82.8308 2.51283 83.5076 3.25542 83.2726C4.22925 82.9642 4.86658 82.091 5.57815 81.3907C6.5783 80.4047 7.55778 79.4017 8.53255 78.3902C9.82316 77.0508 11.924 75.7395 12.0321 73.6875C12.0876 72.6582 10.6184 72.3254 10.4135 73.398Z" fill="black"/>
<path d="M1.91281 82.4595C1.23977 86.8483 2.86784 91.5154 3.86141 95.7566C5.02324 100.71 6.44353 105.719 7.9118 110.585C10.0785 117.767 18.342 122.291 24.4444 116.229C25.2274 115.451 24.2367 114.08 23.2478 114.471C18.4519 116.368 14.191 117.259 11.23 111.975C9.58595 109.042 9.48913 105.588 8.3367 102.494C5.96416 96.1232 3.78993 89.1146 2.63937 82.4162C2.56512 81.9867 1.97297 82.0666 1.91281 82.4595Z" fill="black"/>
<path d="M6.25487 95.6644C7.36312 95.7612 8.42436 95.7236 9.52321 95.5648C10.638 95.4031 12.0151 95.4717 12.9692 94.8175C13.4392 94.4951 13.4477 93.8568 12.9598 93.5438C11.9625 92.9027 10.7471 93.2543 9.65202 93.4489C8.55128 93.6453 7.46186 93.9217 6.35361 94.0655C5.49257 94.1774 5.29326 95.5808 6.25487 95.6644Z" fill="black"/>
<path d="M8.16671 95.8299C9.43194 98.8651 10.0899 102.14 12.5753 104.451C13.3404 105.162 14.6292 104.41 14.1432 103.39C12.8112 100.599 11.5404 97.7587 10.0486 95.0412C9.49681 94.0382 7.71363 94.7432 8.16671 95.8299Z" fill="black"/>
<path d="M7.63198 79.4082C8.74775 77.6721 8.50148 76.2189 7.83221 74.2928C6.71268 71.0677 6.37334 67.4525 5.52641 64.139C4.21324 59.0038 2.22797 52.986 2.24395 47.613C2.25993 42.3359 7.67237 41.5228 10.4801 38.2911C11.0112 37.6801 10.3326 36.7006 9.57307 36.9901C3.36912 39.3599 -0.764072 43.2881 0.11858 50.1585C0.676936 54.4919 1.74853 58.8835 2.93856 63.0871C3.77327 66.0378 4.49241 69.0166 5.12032 72.0171C5.5264 73.9553 7.33119 76.9323 6.48613 78.833C6.18346 79.5116 7.24 80.0174 7.63198 79.4082Z" fill="black"/>
<path d="M13.5132 71.0019C11.684 70.1278 10.9931 62.8983 10.7647 61.3887C10.2759 58.1588 9.6724 54.9046 10.0334 51.6362C10.1405 50.6652 8.65815 50.2253 8.33949 51.201C6.91634 55.5626 8.6196 61.7157 9.80869 66.0284C10.3576 68.0193 10.8164 71.4353 13.1889 71.9993C13.782 72.1403 14.049 71.2567 13.5132 71.0019Z" fill="black"/>
<path d="M9.0755 51.2008C10.4234 48.284 16.0276 46.357 18.6756 45.0655C22.8087 43.0492 27.0651 41.2162 31.3345 39.5111C39.362 36.3048 48.3361 34.3524 56.7491 32.4461C57.6712 32.2374 57.8028 30.7729 56.7406 30.6986C52.8349 30.4223 48.9556 32.2158 45.205 33.1643C39.7108 34.5536 34.2729 35.9711 29.0052 38.086C24.5741 39.8645 20.1965 41.8733 15.9591 44.0747C13.4258 45.3907 8.34321 47.4296 7.79425 50.6415C7.67111 51.3606 8.71078 51.9895 9.0755 51.2008Z" fill="black"/>
<path d="M56.2066 31.8625C59.4543 35.535 61.1745 39.7828 62.3148 44.4903C63.3873 48.9167 62.6522 53.7163 63.8854 58.0074C64.1806 59.0358 65.6338 58.9568 65.9027 57.9595C67.1341 53.3883 65.5728 47.2351 64.3348 42.7682C63.0686 38.2008 60.5945 34.219 56.968 31.1847C56.5375 30.8247 55.809 31.4131 56.2066 31.8625Z" fill="black"/>
<path d="M7.78658 39.5986C11.43 39.8439 14.4464 37.8361 17.4826 35.9918C21.94 33.2847 26.5178 31.0418 31.2948 28.9315C36.6857 26.5505 42.6866 26.6774 48.1122 24.4703C50.7621 23.3922 54.2156 23.2907 57.0328 22.7192C59.709 22.1768 62.3795 21.8788 65.0791 21.5028C66.1799 21.3496 65.9993 19.6886 64.9437 19.6134C60.6216 19.307 56.4594 20.6878 52.2257 21.3656C47.145 22.1796 42.1442 23.6883 37.1115 24.8125C31.5251 26.0608 26.5065 28.752 21.3309 31.1236C16.63 33.2781 12.8043 37.4178 7.66156 38.7046C7.13705 38.8353 7.29402 39.5648 7.78658 39.5986Z" fill="black"/>
<path d="M65.7898 29.6647C68.9407 37.9244 70.4606 45.7066 71.5698 54.409C71.6995 55.4195 73.259 55.3923 73.3473 54.3761C74.0984 45.7132 70.5603 36.7842 66.6809 29.2342C66.4224 28.7313 65.5905 29.1439 65.7898 29.6647Z" fill="black"/>
<path d="M63.4395 20.4764C70.6032 21.6222 73.88 30.0587 76.011 36.1C78.2782 42.5277 80.2682 49.4911 80.8256 56.3014C80.9544 57.8815 83.3692 58.0479 83.3495 56.3831C83.2997 52.0366 81.9734 47.6854 80.7439 43.5372C79.4373 39.1324 78.2566 34.3732 76.12 30.2805C73.3461 24.9667 70.2253 19.2346 63.5843 19.2797C62.8267 19.2854 62.6518 20.3504 63.4395 20.4764Z" fill="black"/>
<path d="M19.8122 23.0792C22.0832 21.6354 24.3401 20.1211 26.9843 19.4725C31.188 18.4422 34.0972 22.5086 34.1922 26.1718C34.2288 27.6043 36.5252 27.4135 36.4152 25.9697C36.105 21.9146 33.7372 19.1971 30.0975 17.6047C26.4203 15.9954 21.5474 20.0318 19.1476 22.1825C18.6146 22.659 19.1974 23.4684 19.8122 23.0792Z" fill="black"/>
<path d="M22.5224 20.5469C22.3457 22.5989 22.1436 24.2317 22.9313 26.1558C23.4981 27.5367 23.6259 29.9966 25.4072 30.3548C25.9383 30.461 26.5474 29.8491 26.3933 29.3142C26.0013 27.9531 25.2333 26.6315 24.6261 25.3474C23.8665 23.7391 23.4727 22.2737 23.3054 20.4783C23.2631 20.0168 22.559 20.122 22.5224 20.5469Z" fill="black"/>
<path d="M19.8696 33.4022C17.639 30.3933 13.724 24.8755 16.8861 21.1992C18.0357 19.8635 19.7549 19.6595 20.9619 18.5324C22.9387 16.6891 24.8196 15.5094 27.4215 14.733C30.0263 13.9556 32.7466 12.5757 35.5431 13.5336C37.2661 14.1229 38.2164 17.005 38.7898 18.4563C39.4854 20.2188 39.5879 22.424 40.7892 23.9158C41.3344 24.5935 42.2847 24.1442 42.4172 23.395C43.0282 19.9406 39.8332 14.4736 37.4118 12.1837C34.2139 9.16072 27.383 12.1809 24.1419 13.5646C21.696 14.6089 19.7681 16.7371 17.4896 18.0859C16.1125 18.9009 14.2147 20.388 13.9129 22.079C13.1478 26.3757 16.1304 31.1171 19.1637 33.9662C19.5284 34.3083 20.1855 33.828 19.8696 33.4022Z" fill="black"/>
<path d="M48.6023 22.8724C44.2257 21.2283 52.1141 19.0579 53.3389 18.7768C54.5148 18.5061 55.6362 18.132 56.752 17.6733C57.488 17.3706 58.1799 17.0858 58.9779 16.9711C60.6699 16.7286 61.5403 21.2039 61.6729 22.0931C61.8947 23.5811 64.0961 23.2775 63.973 21.7914C63.7559 19.1585 62.4333 15.6786 59.7055 14.8448C57.6741 14.2235 54.7235 16.2755 52.773 16.7784C49.2875 17.677 43.2913 19.0663 46.304 23.8546C46.4563 24.0962 46.8351 24.2429 47.1105 24.1874C47.605 24.1319 48.0777 24.0004 48.5289 23.7926C48.8965 23.6554 49.0394 23.0378 48.6023 22.8724Z" fill="black"/>
<path d="M6.06983 41.237C6.13187 40.109 5.09785 38.0796 5.87993 37.181C6.78608 36.1404 8.15943 35.5003 9.39176 34.9494C10.6673 34.3788 12.0557 34.1166 13.445 34.1053C13.8107 34.1025 14.3079 33.6973 14.6256 33.6109C15.8392 33.2781 15.9068 33.6729 16.9812 33.2424C17.941 32.8579 17.9814 31.6594 16.9869 31.2816C15.1004 30.5644 13.8003 31.6247 12.0247 31.9452C10.2735 32.261 8.66234 33.1004 7.16869 34.032C6.28697 34.5828 4.60439 35.7616 4.34871 36.882C3.97365 38.5336 4.8751 39.7274 5.37235 41.269C5.48327 41.6205 6.04445 41.6694 6.06983 41.237Z" fill="black"/>
<path d="M48.0005 19.5006C50.0233 17.8096 48.9997 13.5749 49.9519 11.2287C51.0836 8.4407 54.3802 7.2657 56.8768 6.05687C60.6988 4.20602 64.0997 3.17203 68.3673 3.04607C69.7387 3.00659 69.6447 0.951779 68.2883 0.932979C61.8879 0.83992 55.6501 3.71909 50.5422 7.47718C49.3935 8.32224 48.3088 10.3329 47.9948 11.7053C47.648 13.2253 48.3351 17.8594 47.3744 18.8793C46.9787 19.2995 47.5709 19.8597 48.0005 19.5006Z" fill="black"/>
<path d="M59.8488 15.3703C59.5818 15.5752 59.3139 15.7811 59.0469 15.9879C59.344 16.1674 59.641 16.347 59.9381 16.5265C60.66 12.5221 63.8673 8.49145 66.3395 5.36879C71.2895 -0.879335 76.9162 4.17499 79.9947 9.18797C84.7436 16.9194 87.0475 25.6012 90.0893 34.0649C92.7617 41.4964 95.9351 48.5144 99.8248 55.3905C101.255 57.9172 102.634 60.537 102.839 63.4904C102.937 64.907 103.03 67.1583 103.487 68.4818C105.596 74.5786 101.72 79.0971 96.0968 80.7252C94.9547 81.056 95.2837 82.8458 96.3891 82.9511C99.7608 83.2707 102.998 81.0993 104.767 78.2784C108.09 72.9787 106.473 69.1294 105.582 63.3005C104.576 56.7206 100.331 51.6606 97.8348 45.5901C95.1239 38.9998 91.8095 32.4791 89.8346 25.5956C88.1304 19.652 85.8198 14.5262 82.8889 9.11465C81.1603 5.92244 77.9343 0.903838 73.9919 0.171584C69.621 -0.64057 66.5537 1.51388 63.9471 4.86965C61.6197 7.86541 58.3401 12.5174 58.8232 16.4964C58.8815 16.9796 59.5151 17.1854 59.8234 16.7878C60.0114 16.5462 60.1975 16.3037 60.3846 16.0612C60.66 15.704 60.2802 15.0375 59.8488 15.3703Z" fill="black"/>
<path d="M61.4496 11.3895C64.1821 11.5127 66.0612 11.5296 68.2156 13.4819C71.1898 16.1769 73.2268 19.1219 75.1255 22.6403C78.079 28.1148 81.0051 33.8206 83.2837 39.6006C85.1486 44.3334 87.2308 48.7119 89.5121 53.2502C92.0003 58.1993 94.3437 65.8593 91.4494 70.9982C90.7736 72.1995 92.7175 73.1874 93.3661 71.9617C95.7706 67.4206 94.6952 62.214 93.3858 57.4933C92.5877 54.6179 91.2191 51.9925 89.8336 49.3643C87.7148 45.3449 86.0351 41.1845 84.328 36.9789C81.6068 30.2768 77.8553 23.553 74.069 17.381C72.58 14.9549 70.215 12.7713 67.8622 11.1912C65.8008 9.80752 63.8964 10.363 61.444 10.4796C60.8565 10.5059 60.864 11.3632 61.4496 11.3895Z" fill="black"/>
<path d="M8.64134 35.0584C9.20439 30.8877 8.84249 26.6906 9.50331 22.5151C10.6661 15.1559 16.8983 12.9348 23.3569 13.996C24.437 14.1737 25.2294 12.6208 24.1061 12.0991C19.1354 9.79142 14.0247 12.0888 10.5843 15.9108C6.39383 20.5656 7.42217 29.3433 8.29355 35.0189C8.32175 35.1956 8.6122 35.2737 8.64134 35.0584Z" fill="black"/>
<path d="M26.8204 18.947C28.5819 19.9293 29.3922 21.6222 29.9534 23.4881C30.3971 24.961 30.3557 26.685 31.1641 28.0057C31.5984 28.7126 32.6634 28.2407 32.7536 27.5432C32.9971 25.6707 31.9941 23.285 31.2271 21.6147C30.43 19.8785 28.9354 18.6274 27.1532 18.0136C26.5957 17.8218 26.3476 18.6828 26.8204 18.947Z" fill="black"/>
</svg>
