<svg width="72" height="80" viewBox="0 0 72 80" fill="none" xmlns="http://www.w3.org/2000/svg">
<path d="M7.47817 2.64844C4.89717 5.39344 -0.692834 9.20843 0.0811656 13.6854C0.702166 17.2724 6.82015 12.4614 8.03615 11.5994C10.7222 9.69343 15.6291 5.53544 14.5271 1.59244C13.6121 -1.68056 9.50116 0.864434 8.07116 2.38043C7.56416 2.91743 8.43915 3.70642 8.98915 3.25842C9.54815 2.80442 10.1612 2.41442 10.7742 2.03842C11.1682 1.79742 11.5871 1.61645 12.0131 1.44245C14.2571 0.532445 13.4622 3.37444 13.2882 3.99344C12.4382 7.02744 8.76416 9.47943 6.27416 11.1304C5.33816 11.7494 4.34215 12.3244 3.36416 12.8754C2.72616 13.2354 1.23314 14.2454 1.53914 12.4114C1.64514 11.7784 1.96115 11.1464 2.24315 10.5854C3.63615 7.80942 6.05015 5.46742 7.72115 2.83942C7.81715 2.68942 7.60017 2.51944 7.47817 2.64844Z" fill="#0594D5"/>
<path d="M0.119015 15.0974C0.189015 15.1894 0.387013 15.4504 0.386013 15.4824C0.364013 15.9104 0.426015 16.1564 0.744015 16.4644C1.35202 17.0524 2.116 17.4384 2.85 17.8374C3.21 18.0324 3.658 17.7104 3.707 17.3434C3.755 16.9904 3.43401 16.6294 3.19601 16.4084C2.66801 15.9184 2.05002 15.5634 1.47302 15.1384C1.58202 15.2924 1.69102 15.4474 1.80102 15.6014C1.72402 14.9944 1.42501 14.6734 0.954007 14.3114C0.446007 13.9214 -0.289985 14.5624 0.119015 15.0974Z" fill="#0594D5"/>
<path d="M12.6029 1.12842C13.1469 1.71342 13.6909 2.29744 14.2349 2.88144C14.7289 3.41144 15.1859 3.90642 15.8479 4.21542C16.2089 4.38442 16.7809 4.04941 16.5799 3.60641C16.2719 2.92541 15.8169 2.47543 15.2739 1.97043C14.6689 1.40743 14.0649 0.843442 13.4619 0.278442C12.9599 -0.191558 12.1329 0.623418 12.6029 1.12842Z" fill="#0594D5"/>
<path d="M3.18121 18.0084C6.79421 16.8204 9.52424 14.4924 12.6112 12.2214C15.2572 10.2744 17.3892 7.09244 18.3262 3.96344C18.6362 2.92844 16.9692 2.62044 16.8232 3.74844C16.3592 7.33344 12.6962 10.1944 10.1202 12.2354C8.75624 13.3154 7.44723 14.4594 6.03723 15.4814C4.87523 16.3234 3.46724 16.3674 2.84824 17.6454C2.74324 17.8624 2.96421 18.0794 3.18121 18.0084Z" fill="#0594D5"/>
<path d="M2.354 18.6654C4.374 19.7244 6.20102 23.2094 7.84002 24.8764C10.099 27.1734 12.028 29.9464 14.081 32.4324C17.919 37.0784 21.649 42.2724 25.823 46.5594C29.841 50.6874 33.106 55.5554 37.078 59.7494C40.505 63.3664 44.578 67.9144 49.048 70.1754C50.266 70.7915 51.282 69.0994 50.128 68.3454C39.662 61.5064 32.377 50.3224 24.352 41.0094C19.778 35.7004 15.1 30.4984 10.588 25.1324C8.726 22.9174 5.83 18.2494 2.712 17.8084C2.224 17.7374 1.841 18.3964 2.354 18.6654Z" fill="#0594D5"/>
<path d="M18.0461 4.46041C19.1021 7.23941 20.7611 8.28442 22.5251 10.6824C24.3861 13.2124 26.2411 15.7454 28.1191 18.2624C31.6591 23.0054 35.399 27.6164 39.0261 32.2934C42.8581 37.2364 46.5821 42.2884 50.4991 47.1604C53.8881 51.3764 58.4541 54.5354 61.8761 58.7414C62.5671 59.5914 63.8961 58.7274 63.3001 57.7764C60.4281 53.1994 55.567 49.9984 51.974 46.0234C47.832 41.4434 44.2861 36.0984 40.4831 31.2244C36.8491 26.5664 33.1081 21.9744 29.5571 17.2554C27.6871 14.7704 25.7901 12.3064 23.9011 9.83541C22.3071 7.75041 20.3451 6.28643 19.0571 3.92043C18.7401 3.33843 17.8201 3.86541 18.0461 4.46041Z" fill="#0594D5"/>
<path d="M49.136 70.0674C50.907 72.7534 54.13 70.2294 56.027 68.9554C57.732 67.8094 59.384 65.9914 60.751 64.4684C62.074 62.9914 63.367 61.7934 63.432 59.7154C63.462 58.7404 61.944 58.6675 61.763 59.5895C61.255 62.1745 58.455 64.4565 56.584 66.1855C55.05 67.6035 52.105 70.7644 49.83 69.2704C49.348 68.9514 48.858 69.6454 49.136 70.0674Z" fill="#0594D5"/>
<path d="M50.852 71.6824C52.13 72.3484 53.048 75.1954 54.854 74.3094C56.901 73.3054 59.154 71.7954 60.851 70.2944C62.671 68.6854 64.867 66.2534 65.837 63.9834C66.957 61.3614 65.903 60.8864 64.271 58.8474C63.649 58.0714 62.379 58.7484 62.906 59.6694C63.341 60.4294 63.438 60.5354 64.031 61.1604C65.062 62.2474 63.871 63.8074 63.324 64.6994C62.068 66.7494 60.475 68.7474 58.415 70.0224C57.112 70.8294 55.962 71.8864 54.673 72.7124C54.212 73.0074 51.924 71.0205 51.211 70.7895C50.683 70.6195 50.367 71.4294 50.852 71.6824Z" fill="#0594D5"/>
<path d="M56.4249 72.4494C57.4519 73.4314 58.8649 73.7934 59.9809 74.7164C61.1789 75.7074 62.5179 76.6055 63.7649 77.5425C64.5579 78.1395 65.8689 79.0945 66.9339 79.1075C68.0759 79.1215 68.5449 77.7414 69.6219 77.5874C70.8119 77.4164 70.5219 75.7534 69.3449 75.9684C68.4909 76.1224 67.9479 76.5315 67.3309 77.1495C66.3789 78.1045 64.2339 76.1605 63.3869 75.5165C62.1689 74.5915 60.8959 73.8235 59.6459 72.9225C58.6539 72.2055 57.7379 72.5515 56.6989 72.0345C56.4359 71.9035 56.2239 72.2564 56.4249 72.4494Z" fill="#0594D5"/>
<path d="M64.9972 64.3185C64.9842 66.4795 65.7722 68.3314 66.6942 70.2524C67.5262 71.9854 70.4102 74.9415 69.4262 76.8755C69.0402 77.6325 69.9962 78.4385 70.6292 77.8025C71.9732 76.4525 71.2202 74.6984 70.4262 73.2364C68.7812 70.2024 66.6612 67.8005 66.1792 64.2025C66.0752 63.4265 65.0012 63.5675 64.9972 64.3185Z" fill="#0594D5"/>
<path d="M9.38013 24.0844C13.3151 22.2604 16.3451 19.6704 19.6311 16.8954C21.4281 15.3774 24.8101 12.9964 23.9771 10.2814C23.6531 9.22544 22.1911 8.96544 21.4871 9.78644C19.8551 11.6884 18.4981 13.4294 16.5601 15.1194C13.7871 17.5384 10.9171 19.9954 8.41413 22.6994C7.84513 23.3164 8.59013 24.4504 9.38013 24.0844Z" fill="#0594D5"/>
<path d="M12.1449 28.6164C15.2559 28.5514 18.2359 26.0624 20.6509 24.2644C22.1299 23.1634 23.2929 21.5594 24.5749 20.2454C25.0309 19.7794 25.6659 19.3604 26.1469 18.9074C26.3859 18.5904 26.6149 18.2654 26.8349 17.9344C27.0319 17.4494 27.0139 17.4594 26.7799 17.9644C28.2799 16.9764 27.0019 14.7464 25.3959 15.5504C24.4439 16.0284 24.3379 16.7264 23.5839 17.4584C22.5989 18.4154 21.6249 19.3154 20.7059 20.3534C19.4959 21.7184 18.1969 22.7454 16.6869 23.7714C15.1949 24.7854 13.5549 26.4454 11.8119 26.9434C10.8399 27.2234 11.2039 28.6364 12.1449 28.6164Z" fill="#0594D5"/>
</svg>
