<svg width="86" height="97" viewBox="0 0 86 97" fill="none" xmlns="http://www.w3.org/2000/svg">
<path d="M1.86849 27.3239C1.94105 27.164 2.00353 27.0001 2.05391 26.8315C2.15334 26.5379 1.89269 26.2256 1.62061 26.1644C1.50305 26.1322 1.3848 26.1006 1.2679 26.0684C0.948802 25.9642 0.481905 26.1382 0.410695 26.503C-0.189887 29.5697 1.03279 32.6264 3.32898 34.7009C5.96913 37.0857 10.5232 36.3494 13.5691 35.2907C14.8408 34.848 13.9964 32.8729 12.7294 33.366C10.0832 34.3959 6.50051 35.0348 4.16267 33.0093C2.37167 31.4568 1.74757 29.0276 1.73548 26.7549C1.55343 26.9638 1.37203 27.1721 1.18998 27.381C1.35121 27.3374 1.51245 27.2944 1.67502 27.2514C1.43922 27.1291 1.20409 27.0075 0.968295 26.8853C1.01734 27.0277 1.07174 27.168 1.1322 27.3064C1.26253 27.6182 1.73011 27.6551 1.86849 27.3239Z" fill="#7EBA32"/>
<path d="M11.9747 35.4694C15.3686 34.5914 18.8458 31.659 21.8783 29.8922C25.9218 27.5362 30.0083 25.2407 33.9739 22.7564C37.7561 20.3877 41.8346 18.6289 45.598 16.2078C49.5327 13.6758 54.2117 12.1676 57.832 9.16271C58.9042 8.27326 57.5653 6.89944 56.477 7.36768C52.3737 9.13584 47.9815 11.7169 44.2927 14.2301C40.9055 16.5383 37.1999 18.1815 33.7616 20.3797C29.8438 22.8848 25.8352 25.275 21.8225 27.6283C19.8508 28.7844 17.9792 30.12 15.9914 31.2405C14.5349 32.0614 12.9972 33.5528 11.4622 34.1494C10.6956 34.4477 11.2096 35.6669 11.9747 35.4694Z" fill="#7EBA32"/>
<path d="M57.2088 8.59775C58.4254 8.37605 62.1761 21.5022 62.7572 23.1468C64.9177 29.2541 66.5837 35.5185 68.4056 41.7346C70.2557 48.0467 73.1317 54.066 75.7637 60.0806C78.031 65.2628 81.0649 70.5169 82.6006 75.9503C83.0829 77.6574 85.6935 76.8203 85.2206 75.1133C83.49 68.8609 80.0101 62.8591 77.3975 56.9245C74.394 50.1011 71.7249 43.3328 69.6545 36.1674C67.5625 28.9282 65.3247 21.6346 62.4347 14.66C61.7925 13.1102 59.4016 5.10981 56.5424 7.39189C55.9445 7.86819 56.5726 8.71397 57.2088 8.59775Z" fill="#7EBA32"/>
<path d="M0.470862 27.8244C-0.491145 30.0588 0.243797 32.3079 0.711365 34.6142C1.2441 37.2436 2.56014 38.8646 4.14893 40.96C4.55604 41.4974 5.48915 41.0231 5.20767 40.3802C4.36726 38.4642 2.7751 37.165 2.25312 35.0542C1.70493 32.8353 1.15743 30.3886 1.68076 28.1354C1.84803 27.4159 0.74361 27.1916 0.470862 27.8244Z" fill="#7EBA32"/>
<path d="M15.5631 40.1344C15.3905 43.1649 17.7686 46.6716 18.9308 49.3736C21.1128 54.4483 23.7241 59.3322 26.0914 64.321C30.7087 74.0499 34.4882 84.1845 40.6976 93.0965C41.2612 93.9054 42.5752 93.0576 42.1466 92.1936C40.1433 88.1501 37.5079 84.3774 35.2903 80.44C32.8517 76.1103 30.9371 71.6005 28.9244 67.0686C26.8734 62.452 24.463 57.996 22.2206 53.4722C21.1101 51.2318 20.0648 48.9618 19.084 46.6622C18.2321 44.6643 16.3357 42.2546 16.1026 40.0948C16.069 39.7817 15.5799 39.8341 15.5631 40.1344Z" fill="#7EBA32"/>
<path d="M41.7852 93.2282C42.0801 93.2282 42.1352 92.7687 41.8376 92.7687C41.5434 92.7687 41.4883 93.2282 41.7852 93.2282Z" fill="#7EBA32"/>
<path d="M41.4294 92.035C41.0008 94.176 42.0965 96.399 44.4189 96.5226C46.4349 96.6294 48.5336 95.0406 50.3138 94.2506C52.9513 93.081 55.584 91.9 58.1906 90.6619C63.0322 88.3617 67.7408 85.8041 72.5683 83.4777C76.763 81.4563 81.481 79.6942 85.151 76.79C86.2332 75.9341 84.8822 74.5066 83.796 74.995C77.0559 78.0288 70.4018 81.6458 63.8525 85.0867C60.2201 86.9952 56.5057 88.7546 52.7739 90.4583C50.8345 91.3431 48.897 92.2224 46.9824 93.1616C45.8048 93.9221 44.488 94.1525 43.0323 93.8536C42.6178 93.3571 42.4276 92.5516 42.175 91.9665C42.0239 91.6158 41.5073 91.646 41.4294 92.035Z" fill="#7EBA32"/>
<path d="M4.20922 40.8196C6.66932 45.7667 8.23595 51.1034 10.3393 56.203C12.4011 61.2025 15.0721 65.9353 17.3421 70.8407C19.3481 75.1738 22.0977 79.2939 24.6042 83.3501C25.9014 85.4481 27.1247 87.4467 28.0901 89.7181C28.737 91.2417 29.3067 92.7243 30.7101 93.6541C31.4289 94.1311 32.1612 93.028 31.5767 92.4583C30.0067 90.9279 29.3457 88.3617 28.4441 86.4202C27.6138 84.6306 26.3334 82.9948 25.2867 81.3294C22.5431 76.9654 19.8761 72.5343 17.6236 67.8969C15.4429 63.4073 13.0379 59.0406 11.0837 54.4442C9.07972 49.7303 7.62193 44.847 5.06911 40.3776C4.76076 39.8388 3.9311 40.2593 4.20922 40.8196Z" fill="#7EBA32"/>
<path d="M30.7072 93.3256C31.5207 94.299 31.774 94.8203 32.8717 95.3047C34.3825 95.9718 35.9801 96.5468 37.6038 96.8445C39.4223 97.1777 41.4814 97.046 42.8572 95.7494C43.4229 95.2167 42.79 94.4804 42.1988 94.4522C40.8909 94.389 39.7085 94.9695 38.3817 94.991C36.0439 95.0286 33.1202 94.0625 31.3218 92.5906C30.8798 92.2299 30.3733 92.9259 30.7072 93.3256Z" fill="#7EBA32"/>
<path d="M6.94648 47.0209C8.68777 50.8945 15.0255 50.1313 18.2098 49.1673C18.6847 49.0235 18.7506 48.2584 18.2084 48.1522C14.7655 47.4818 10.3861 49.9842 7.65256 46.6205C7.36772 46.2705 6.75032 46.5869 6.94648 47.0209Z" fill="#7EBA32"/>
<path d="M9.32766 54.3019C12.2298 57.3592 17.8561 58.7505 21.6094 56.3267C22.2073 55.941 21.6732 55.1739 21.1156 55.1927C19.5221 55.2471 17.9736 55.7933 16.3721 55.9155C13.9704 56.0989 11.6541 55.2579 9.80261 53.7678C9.44052 53.4769 9.01326 53.9693 9.32766 54.3019Z" fill="#7EBA32"/>
<path d="M13.3586 62.8108C14.6216 63.8232 16.3394 63.8863 17.8684 64.1255C20.1894 64.4896 22.536 64.0274 24.6212 63.0029C25.1755 62.7309 24.7684 61.871 24.2007 62.0288C22.6193 62.4675 21.0594 62.8854 19.4169 63.0002C17.9638 63.1017 14.9622 62.9176 13.7583 62.2263C13.4077 62.0241 13.0429 62.5575 13.3586 62.8108Z" fill="#7EBA32"/>
<path d="M17.6985 68.384C20.3923 70.0352 24.4789 69.5771 27.0324 67.8298C28.0105 67.16 27.2205 65.6975 26.1348 66.2147C23.8172 67.3185 20.8424 68.517 18.3185 67.3722C17.7173 67.0988 17.1086 68.0225 17.6985 68.384Z" fill="#7EBA32"/>
<path d="M2.47901 30.869C2.64561 30.7353 2.81223 30.6016 2.97884 30.4673C3.07625 30.3887 3.0796 30.2657 3.01646 30.1663C0.291665 25.9139 8.03273 23.3617 10.82 21.4921C14.9636 18.7129 19.0461 15.7852 23.3691 13.2915C27.1748 11.0961 30.8723 8.51779 34.8144 6.59445C36.7901 5.62975 38.9258 4.98484 40.9445 4.10882C43.0351 3.20056 45.7546 0.878165 47.2607 3.50823C47.8868 4.60124 49.5502 3.5257 48.9005 2.44814C48.2113 1.30475 48.0051 -0.178554 46.2524 0.0176091C43.3516 0.342085 40.7107 1.95237 38.035 3.05747C31.8444 5.61565 26.2726 9.06463 20.516 12.4955C14.9287 15.8255 9.77603 19.9101 4.26061 23.3497C2.70407 24.3204 1.03935 25.5766 1.05951 27.5121C1.0669 28.2027 2.6577 30.1905 2.29023 30.646C2.19081 30.7696 2.34264 30.9785 2.47901 30.869Z" fill="#7EBA32"/>
<path d="M2.0427 30.7616C3.44339 30.5647 4.29993 29.7519 5.45944 28.9995C7.18729 27.8769 9.00515 26.8967 10.7256 25.7574C14.8323 23.036 19.205 20.7431 23.319 18.0304C27.2766 15.4212 31.3712 12.9019 35.4442 10.4781C39.4273 8.10871 43.9196 4.60262 48.604 4.041C49.4081 3.94494 49.2422 2.77938 48.4555 2.81163C44.8245 2.95943 41.8102 5.29254 38.7602 7.04256C34.845 9.28837 30.9768 11.6054 27.2269 14.1192C23.0745 16.9025 18.6588 19.3921 14.3432 21.9214C12.5045 22.9997 10.7485 24.1055 8.99709 25.3127C7.96253 26.0261 6.8823 26.6757 5.81549 27.3374C4.703 28.0274 3.08533 29.5369 1.86133 29.8345C1.26746 29.9782 1.4401 30.8462 2.0427 30.7616Z" fill="#7EBA32"/>
<path d="M15.0495 26.4943C18.3587 25.0661 21.1843 22.8975 24.1536 20.8942C27.5442 18.6068 31.0523 16.5464 34.3689 14.1367C37.5901 11.7955 40.982 9.88692 44.3759 7.80436C45.4851 7.12384 50.4369 2.77465 51.6259 4.22236C52.0324 4.71815 52.9668 4.31439 52.6739 3.66745C51.8396 1.82472 49.9827 2.60267 48.584 3.39941C45.5146 5.14742 42.6971 7.40462 39.6358 9.20502C35.1274 11.8566 31.0711 15.1645 26.7058 18.0559C22.7778 20.6571 19.0238 23.9072 14.8305 26.0415C14.5403 26.188 14.7519 26.6226 15.0495 26.4943Z" fill="#7EBA32"/>
<path d="M39.2495 14.4174C42.7589 12.1844 46.57 10.0414 49.6972 7.28836C50.2366 6.8134 52.4112 5.02508 52.5584 5.277C53.1126 6.22759 54.1102 6.96522 54.7403 7.89766C55.1945 8.56879 56.098 7.82309 55.8535 7.16675C55.3107 5.71097 54.0511 5.00359 52.9157 3.99322C52.7384 3.83535 52.4146 3.75069 52.2318 3.96566C52.2755 3.91394 49.9028 5.4819 49.7207 5.60685C48.455 6.47615 47.309 7.54697 46.0628 8.45457C43.6343 10.2227 41.291 12.1031 38.9411 13.972C38.7006 14.1635 38.9881 14.584 39.2495 14.4174Z" fill="#7EBA32"/>
<path d="M5.82067 31.5462C7.87904 32.6057 10.3076 31.8996 12.1201 30.6494C12.4983 30.388 12.149 29.6954 11.7143 29.8338C9.92264 30.4049 8.06379 31.5093 6.14515 30.8402C5.67691 30.6769 5.36855 31.3138 5.82067 31.5462Z" fill="#7EBA32"/>
<path d="M15.9684 29.2043C21.7337 26.3882 27.2471 22.833 32.6873 19.4411C33.1119 19.1765 32.6644 18.4778 32.2258 18.6995C26.4591 21.6063 21.2494 25.4329 15.7017 28.7045C15.388 28.8892 15.6392 29.3649 15.9684 29.2043Z" fill="#7EBA32"/>
</svg>
