<svg width="215" height="139" viewBox="0 0 215 139" fill="none" xmlns="http://www.w3.org/2000/svg">
<path fill-rule="evenodd" clip-rule="evenodd" d="M58.6016 74.6904C56.9957 71.3339 55.6069 68.1733 54.1394 65.0326C53.981 64.7383 53.5868 64.5038 53.2325 64.4266C51.7955 64.0389 51.4186 63.2144 52.102 61.9532C57.6288 52.0993 63.2341 42.2254 68.7409 32.2929C69.3271 31.3074 70.0929 31.0291 71.2143 31.1624C87.8571 32.7888 104.558 34.3166 121.143 36.0416C129.995 36.9707 138.791 38.3327 147.585 39.3603C160.058 40.708 172.471 41.8199 184.963 43.2461C190.373 43.7954 195.726 44.7774 201.137 45.661C201.648 45.6983 202.141 45.9914 202.614 46.2059C203.875 46.8892 203.976 47.6164 202.859 48.486C199.878 50.5821 197.094 52.7953 193.955 54.5971C181.869 61.6841 169.546 68.4967 157.46 75.5838C141.783 84.6709 126.225 93.8953 110.647 103.041C101.386 108.518 92.1586 114.014 82.9638 119.53C80.0016 121.37 77.1779 123.426 74.3142 125.325C72.6866 126.492 71.998 126.416 70.9687 124.669C68.039 119.725 65.1094 114.781 62.2583 109.817C61.5259 108.581 60.9546 108.308 59.6 108.903C47.7567 114.311 35.9066 119.693 24.0499 125.049C23.0097 125.564 21.9295 125.922 20.8094 126.123C19.6107 126.344 19.0767 125.56 19.6429 124.496C25.719 112.634 31.769 100.779 37.7927 88.93C38.8335 86.8808 39.8481 84.8383 40.8366 82.8024C41.3641 81.9154 42.0687 81.0671 41.2577 79.851C41.2177 79.6939 42.2354 78.4314 42.8641 78.2716C47.3632 77.2119 51.8823 76.2307 56.4013 75.2495C57.03 75.0898 57.6586 74.93 58.6016 74.6904ZM190.796 51.3843C190.704 51.2405 190.638 51.09 190.598 50.9328C188.436 51.3149 186.176 51.6383 183.936 52.0403C165.151 55.8104 146.267 59.5219 127.502 63.3706C100.334 68.8251 73.1851 74.3583 46.0564 79.97C45.3491 80.1498 44.4274 80.8023 44.0957 81.4722C38.1626 93.0189 32.308 104.546 26.4734 116.151C25.3997 118.18 24.5232 120.327 23.3922 122.79C24.1381 122.433 24.531 122.333 24.9039 122.155C37.6637 116.402 50.4034 110.571 63.2417 104.799C75.7657 99.1062 88.1898 93.0208 101.031 87.917C126.634 77.7293 152.694 68.6803 177.899 57.2553C182.139 55.2854 186.438 53.3284 190.796 51.3843ZM55.5982 60.8974C56.0311 60.9547 56.2082 60.9933 56.3653 60.9534C68.6306 59.5094 80.8958 58.0655 93.1211 56.4644C102.772 55.2666 112.361 53.4988 122.053 52.7924C141.457 51.4584 160.962 50.8515 180.406 49.6746C185.341 49.3408 190.233 48.1812 195.146 47.4344C195.132 47.1592 195.118 46.8839 195.104 46.6087C191.739 46.2088 188.375 45.809 185.031 45.4877C175.431 44.5811 165.891 43.9103 156.33 42.8266C145.824 41.6483 135.374 39.7029 124.81 38.6231C107.34 36.7049 89.8333 35.2982 72.3448 33.6358C71.0463 33.4638 70.4576 33.7808 69.8328 34.9434C65.381 43.102 60.9092 51.182 56.3788 59.3605C56.1444 59.7547 55.9299 60.2275 55.5982 60.8974ZM111.291 86.8151C111.147 86.6846 110.983 86.5869 110.799 86.5221C108.58 87.337 106.361 88.1518 104.162 89.0453C103.71 89.2437 103.379 89.9136 103.243 90.3664C102.273 93.7919 101.48 97.256 100.51 100.681C100.394 101.213 99.5498 101.511 99.0796 101.965C98.8413 101.357 98.3472 100.729 98.4631 100.198C98.751 98.3678 99.3345 96.7137 99.7995 94.9224C100.129 93.5839 100.516 92.1469 100.903 90.3755C99.4496 90.9121 98.4293 91.5061 97.3292 91.7857C95.7775 92.2637 95.0928 93.1906 94.7451 94.7848C94.1668 97.7761 93.3328 100.749 92.5773 103.701C92.4414 104.154 91.6956 104.511 91.2054 104.887C90.987 104.356 90.5329 103.886 90.4717 103.316C90.3319 102.766 90.6836 102.175 90.7795 101.565C91.3404 99.1636 91.98 96.7423 92.6768 93.8882C90.1835 94.9402 88.063 95.8137 85.9826 96.8443C85.7468 96.9042 85.6509 97.5142 85.5736 97.8685C84.2985 103.714 83.082 109.461 81.8854 115.286C81.7495 115.739 81.0037 116.096 80.6121 116.53C80.3151 116.02 79.841 115.471 79.7212 115C79.66 114.43 79.8345 113.8 80.009 113.17C80.9231 108.866 81.8567 104.53 82.8098 100.16C83.0043 99.609 83.0017 98.9404 83.1749 97.9762C81.3102 98.8683 79.7399 99.602 78.1296 100.179C76.9123 100.655 76.502 101.345 76.3101 102.565C75.8907 105.962 75.3532 109.334 74.6976 112.679C74.6017 113.289 73.7972 113.745 73.327 114.199C73.1086 113.669 72.6146 113.041 72.5534 112.471C72.6081 111.37 72.8199 110.228 73.0318 109.087C73.377 106.824 73.7421 104.64 74.086 102.043C70.3766 103.906 66.9415 105.532 63.2122 107.316C66.4587 112.849 69.6454 118.146 72.7734 123.542C74.8326 122.098 76.5189 120.833 78.4022 119.685C87.9175 114.004 97.5114 108.303 107.085 102.524C118.7 95.5568 130.254 88.3538 141.929 81.6223C154.643 74.3755 167.536 67.5016 180.369 60.392C183.136 58.7688 185.862 56.9883 188.609 55.2865C179.871 58.7618 171.49 62.6488 162.851 66.1827C150.423 71.2653 137.778 76.152 125.211 81.0188C124.151 81.4556 123.779 81.9683 123.489 83.1296C122.987 85.4324 122.051 87.6778 121.195 89.9033C120.98 90.3761 120.195 90.5757 119.684 90.8727C119.446 90.264 119.129 89.6753 119.167 89.1639C119.184 88.5739 119.556 88.0611 119.75 87.5098C120.275 85.9542 120.82 84.4772 121.501 82.5474C118.752 83.5807 116.454 84.4156 114.235 85.2305C113.941 85.3889 113.628 85.8031 113.55 86.1574C112.735 88.8743 112.097 91.6298 111.261 94.2682C110.931 95.2724 110.88 97.3767 109.206 96.7146C107.651 96.1897 108.844 94.6316 109.175 93.6274C109.834 91.2847 110.612 89.0792 111.291 86.8151ZM101.758 57.532C99.8122 57.7755 98.182 58.2735 96.5105 58.28C94.0918 58.3091 92.9357 59.3559 92.3548 61.6786C91.8325 63.9027 90.7988 66.0895 89.9222 68.2364C90.0802 68.4193 90.2121 68.6089 90.3177 68.8051C92.518 68.2459 94.7183 67.6868 96.8986 67.049C97.2129 66.9691 97.5858 66.7907 97.6831 66.515C99.0485 63.6583 100.315 60.743 101.758 57.532ZM90.9486 59.1079C89.7299 59.2503 88.9241 59.3714 88.0784 59.3354C85.1084 59.17 83.4021 60.3565 82.7453 63.3678C82.2629 65.7491 81.1506 67.9559 80.314 70.2599C80.4063 70.4038 80.5315 70.5672 80.6895 70.7501C82.6541 70.2508 84.6972 69.7316 86.6617 69.2323C86.976 69.1524 87.309 68.8168 87.4063 68.5411C88.5746 65.5672 89.7229 62.5147 90.9486 59.1079ZM143.551 53.7707C143.452 53.7121 143.255 53.5948 143.078 53.5562C138.91 53.8346 134.736 54.0869 130.554 54.3129C130.24 54.3928 129.769 54.5126 129.671 54.7883C128.499 56.7593 127.524 58.8476 126.216 61.2714C127.886 60.9306 129.143 60.6111 130.519 60.4288C131.738 60.2864 132.562 59.9095 133.187 58.7469C133.812 57.5842 134.634 56.5388 135.554 55.552C136.024 55.0979 136.85 55.0553 137.459 54.817C137.461 55.4856 137.582 56.2913 137.309 56.8627C136.939 57.7097 136.273 58.3809 135.471 59.5049C138.026 59.023 140.076 58.6414 141.622 58.3601C142.401 56.4889 142.986 55.1691 143.551 53.7707ZM81.6508 60.0487C79.6063 60.2337 77.8763 60.3387 76.1861 60.6009C75.8518 60.6022 75.3616 60.9778 75.2844 61.332C74.2558 64.856 73.2273 68.38 72.1029 72.514C74.2246 71.9748 76.0332 71.8498 77.505 71.0574C78.2109 70.5434 78.303 68.9305 78.692 67.8278C78.9389 67.2631 79.1596 66.7051 79.3541 66.1537C80.1134 64.2039 80.7942 62.2742 81.6508 60.0487ZM55.8044 63.3547C57.5688 67.0054 59.0961 70.3818 60.6821 73.6597C60.762 73.974 61.3333 74.2471 61.6476 74.1672C61.962 74.0873 62.3735 73.7318 62.4508 73.3775C63.3608 69.7163 64.2508 65.9765 65.1595 61.981C62.015 62.4456 59.1061 62.8502 55.8044 63.3547ZM64.7722 73.6241C66.148 73.4418 67.091 73.2021 68.074 73.1196C69.3712 72.9573 69.9 72.4046 70.1705 71.1647C70.6142 68.9605 71.3922 66.755 72.013 64.5895C72.3035 63.4281 72.6139 62.3453 72.923 60.9282C71.2329 61.1905 69.7585 61.3142 68.3241 61.5951C68.0097 61.675 67.5196 62.0505 67.3637 62.4248C66.5323 66.066 65.6809 69.6286 64.7722 73.6241ZM108.354 64.7233C111.32 63.8859 114.627 64.7186 115.969 60.7804C116.512 58.9691 117.784 57.391 118.995 55.2428C116.322 55.5875 114.121 55.8124 111.919 56.0372C111.972 59.5374 109.404 61.6122 108.354 64.7233ZM100.336 66.0917C103.64 66.2558 105.112 65.4635 106.538 62.8425C107.065 61.9556 107.593 61.0686 108.042 60.2016C108.745 59.019 109.37 57.8564 110.15 56.3195C107.733 56.6828 105.708 56.9463 104.333 57.1287C102.89 60.3396 101.623 63.255 100.336 66.0917ZM117.354 62.9381C119.731 62.4176 121.815 62.3898 123.523 61.5376C124.347 61.1607 124.478 59.3707 125.143 58.3653C125.846 57.1826 126.746 56.1172 127.49 55.0918C127.332 54.9088 127.154 54.7588 126.957 54.6415C124.991 54.8065 123.084 54.8729 121.531 55.0166C120.126 57.7161 118.818 60.14 117.354 62.9381ZM150.897 56.6722C157.813 55.249 164.436 53.9844 171.116 52.6212C171.076 52.464 171.063 52.3002 171.075 52.1297C164.666 52.5873 158.336 53.0249 152.163 53.4225C151.754 54.4467 151.403 55.3723 150.897 56.6722ZM149.705 53.6288C146.243 53.1703 145.595 53.5858 144.451 57.6412C147.695 57.5695 147.695 57.5695 149.705 53.6288Z" fill="#181818"/>
<path d="M33.6403 113.409C33.0676 112.802 32.5749 112.509 32.455 112.037C32.3165 111.822 32.511 111.27 32.7455 110.876C36.4327 103.33 40.1986 95.7642 43.9844 88.2768C44.4134 87.3312 44.7998 85.5599 46.2581 86.3605C47.7164 87.1611 46.3645 88.4249 45.9155 89.2919C42.3126 96.6212 38.7031 103.924 35.0868 111.201C34.7552 111.871 34.2463 112.502 33.6403 113.409Z" fill="#181818"/>
<path d="M42.9319 105.861C42.5576 105.705 42.0462 105.668 41.9863 105.432C41.8665 104.961 41.7653 104.234 41.9798 103.761C43.4238 100.884 44.9463 97.9874 46.4103 95.1893C46.5076 94.9136 46.6048 94.6379 46.762 94.598C47.2135 94.3996 47.8022 94.0826 47.9993 94.1999C48.3935 94.4343 48.7504 95.1802 48.5746 95.4758C46.9947 98.8053 45.2963 101.998 43.6964 105.249C43.5006 105.466 43.2062 105.624 42.9319 105.861Z" fill="#181818"/>
<path d="M64.6125 57.8538C64.2582 57.7765 63.7468 57.7392 63.6869 57.5034C63.4299 57.1505 63.2701 56.5218 63.4459 56.2261C64.8766 53.2971 66.3663 50.3809 67.9151 47.4776C68.1496 47.0834 68.9154 46.8051 69.2697 46.8824C69.5453 46.9796 70.0207 47.8627 69.9235 48.1384C68.3623 51.2122 66.801 54.2859 65.2398 57.3597C65.1226 57.5568 64.8083 57.6367 64.6125 57.8538Z" fill="#181818"/>
<path d="M76.0744 46.9936C75.8599 47.4664 75.724 47.9191 75.5681 48.2934C74.24 50.6387 72.9905 52.964 71.6225 55.1521C71.3295 55.6449 70.6023 55.746 70.0922 56.043C69.9324 55.4143 69.4969 54.6884 69.7114 54.2156C70.9995 51.7132 72.4062 49.3479 73.8914 46.9627C74.0473 46.5885 74.7545 46.4087 75.1474 46.3089C75.3832 46.249 75.6602 46.6805 76.0744 46.9936Z" fill="#181818"/>
</svg>
