<svg width="122" height="111" viewBox="0 0 122 111" fill="none" xmlns="http://www.w3.org/2000/svg">
<path fill-rule="evenodd" clip-rule="evenodd" d="M46.4852 92.8085C31.4919 89.8063 19.761 82.1683 11.2491 69.7774C6.74642 63.274 4.87409 55.826 5.90971 47.9693C8.44117 29.6122 18.1916 16.5426 35.8338 10.2944C49.2072 5.59577 63.169 5.22831 77.0405 7.71372C84.1395 9.00252 90.9991 11.4437 97.0034 15.5306C108.753 23.5075 115.545 34.6982 116.781 48.9243C117.496 56.6935 115.406 63.9287 111.467 70.623C105.517 80.8001 96.9015 87.6518 85.4061 90.593C80.8967 91.7792 76.4118 92.7437 71.9147 93.8191C71.3972 93.9303 70.7504 94.1958 70.5351 94.6211C69.3719 96.5135 67.814 97.9133 65.9108 98.882C61.0326 101.375 56.0126 103.627 50.3749 103.847C46.6535 103.998 43.0238 103.316 39.5663 102.093C39.1842 101.994 38.7218 101.607 38.7463 101.385C38.7337 100.99 39.0599 100.577 39.3678 100.331C42.2315 98.2892 44.5341 95.7366 46.4852 92.8085ZM41.3953 100.779C42.0115 100.791 42.2333 100.815 42.4613 100.784C46.9775 100.553 51.3886 99.749 55.6575 98.1994C59.8154 96.6375 63.7943 94.6629 65.9727 90.6933C67.0926 88.6838 68.4726 88.387 70.284 88.2502C70.399 88.2255 70.5325 88.2028 70.6844 88.1821C81.4106 86.6155 91.4392 83.2317 99.9123 76.1398C106.28 70.8363 110.323 64.2097 111.019 55.8664C112.681 36.2345 101.167 13.9133 75.1931 9.19383C74.9219 9.10776 74.6385 9.13262 74.3551 9.15747C73.4555 9.17044 72.6053 9.245 71.7734 9.15317C70.7136 9.09232 69.7398 8.7603 68.6922 8.58853C59.6708 7.42436 50.7863 8.07158 41.9152 10.1236C36.0442 11.4403 30.5311 13.5823 25.5982 17.0795C18.3498 22.2296 13.3208 29.1404 9.99336 37.4178C4.81461 50.2622 6.59338 64.6605 18.3021 75.5518C24.0485 80.9575 30.8595 84.3476 38.3842 86.357C41.8723 87.3033 45.5326 87.7074 49.1684 88.3332C49.9941 88.4805 50.0561 88.9364 49.8224 89.5281C49.4226 90.6067 48.912 91.673 48.352 92.6777C46.6166 95.6858 44.3079 98.2938 41.3953 100.779ZM68.7204 90.2107C69.5843 92.0462 70.6629 92.4459 72.5603 92.0379C76.5832 91.1909 80.5568 90.2822 84.4871 89.2566C92.4587 87.2175 99.3445 83.3184 104.799 77.1283C111.461 69.668 115.496 61.0758 115.267 50.9464C114.956 38.0012 109.323 27.4998 99.4029 19.2197C99.1995 19.0288 98.9344 18.8873 98.7248 18.7519C99.2059 19.4786 99.8102 20.1067 100.408 20.7902C107.689 28.7415 111.764 38.098 112.635 48.8595C113.667 61.3791 109.083 71.3703 98.9346 78.8947C92.7518 83.545 85.853 86.5445 78.3618 88.2998C75.1953 89.0168 71.9917 89.5614 68.7204 90.2107ZM67.5075 91.5363C62.4846 98.3916 55.0183 100.43 47.2991 102.217C49.6529 102.252 52.0066 102.287 54.1997 101.743C58.931 100.582 63.6989 99.087 67.4859 95.8001C69.9675 93.6603 69.4745 93.5497 67.5075 91.5363ZM47.8266 90.3182C42.428 88.8803 37.1281 87.5656 32.161 86.2875C34.935 88.1094 41.8745 90.3348 47.4575 91.1195C47.6051 90.799 47.7528 90.4785 47.8266 90.3182Z" fill="#7EBA32"/>
<path d="M12.6484 43.8853C10.5036 51.6196 12.3755 58.5623 16.3607 65.1769C16.5519 65.4787 16.4352 66.0272 16.4417 66.477C16.0103 66.3171 15.3941 66.3052 15.1474 65.9973C12.995 63.1214 11.7849 59.8443 10.9815 56.4437C10.0174 52.4641 9.45378 48.4163 10.7448 44.3488C10.837 44.0221 10.8859 43.5785 11.1384 43.3257C11.3847 43.1283 11.8528 42.9555 12.1795 43.0476C12.4013 43.0721 12.5126 43.5896 12.6484 43.8853Z" fill="#7EBA32"/>
<path d="M11.9341 37.6323C12.2478 36.8249 12.4876 36.1777 12.7829 35.5367C14.4988 31.1793 16.8929 27.2896 20.1314 23.8861C20.6978 23.3311 21.2582 22.8316 21.9233 22.3998C22.1635 22.258 22.6443 22.4794 23.0325 22.5223C22.9342 22.9044 22.99 23.4157 22.7991 23.6192C18.4147 27.233 15.8057 32.0533 13.7761 37.2181C13.6346 37.4832 13.5424 37.8098 13.3516 38.0133C13.1052 38.2106 12.6864 38.4451 12.4707 38.3651C12.1995 38.2791 12.076 37.8725 11.9341 37.6323Z" fill="#7EBA32"/>
<path d="M97.4533 73.5104C97.3914 73.0545 97.2124 72.6418 97.3046 72.3152C97.3968 71.9886 97.8156 71.7541 98.1174 71.5629C100.439 69.8545 102.452 67.8875 103.905 65.4095C103.979 65.2492 104.065 64.9781 104.243 64.8855C104.594 64.7559 104.933 64.7371 105.34 64.6136C105.352 65.008 105.587 65.4268 105.445 65.6918C103.803 68.8785 101.29 71.2957 98.3219 73.2695C98.1988 73.3682 97.9708 73.3992 97.4533 73.5104Z" fill="#7EBA32"/>
<path d="M101.593 64.9862C101.329 65.35 101.126 65.6644 100.873 65.9172C98.8349 67.6007 96.8521 69.2904 94.7645 70.9124C94.4566 71.1591 93.7972 71.0302 93.3474 71.0367C93.5134 70.5498 93.6362 69.9459 93.9441 69.6992C95.8776 67.9479 97.9097 66.3198 99.9419 64.6917C100.25 64.445 100.712 64.3276 101.106 64.315C101.217 64.3272 101.396 64.7399 101.593 64.9862Z" fill="#7EBA32"/>
<path d="M14.8894 41.8876C15.1411 40.6243 15.3867 39.4165 15.6878 38.2148C15.8599 37.6724 16.1923 37.2039 16.574 36.797C16.7649 36.5935 17.3317 36.5438 17.5413 36.6792C17.7509 36.8146 17.8561 37.3875 17.7207 37.5971C16.533 39.7114 16.5038 42.0097 16.3022 44.3451C16.2716 44.6224 16.3458 44.9673 16.2104 45.1769C16.0627 45.4974 15.7548 45.7441 15.5024 45.9969C15.2496 45.7445 14.8304 45.4737 14.8056 45.1903C14.7616 44.0627 14.8286 42.9475 14.8894 41.8876Z" fill="#7EBA32"/>
</svg>
