<svg width="150" height="150" viewBox="0 0 150 150" fill="none" xmlns="http://www.w3.org/2000/svg">
<g style="mix-blend-mode:luminosity" clip-path="url(#clip0_48_869)">
<path fill-rule="evenodd" clip-rule="evenodd" d="M0 0H150V150H0V0Z" fill="white"/>
<path fill-rule="evenodd" clip-rule="evenodd" d="M6.61768 54.9097H34.6604V95.0905H6.61768V54.9097ZM10.6596 91.0455H30.6045V58.9562H10.6596V91.0455Z" fill="#F7D730"/>
<path fill-rule="evenodd" clip-rule="evenodd" d="M53.2878 72.9371H51.5532C49.2747 69.7185 47.0148 66.5202 44.7581 62.9055H44.7417V72.9371H42.8243V58.95H44.5604C46.8389 62.146 49.0957 65.3218 51.3314 68.9178H51.3711V58.95H53.2885L53.2878 72.9371ZM57.8456 67.4011C58.402 65.5622 58.9623 63.8642 59.4627 61.7055H59.5031C60.0619 63.8642 60.5622 65.563 61.0813 67.4011H57.8456ZM58.7623 58.95L53.9298 72.9371H56.0075L57.223 69.1193H61.4416L62.5396 72.9371H65.2189L60.7615 58.95H58.7623ZM67.4749 72.9371V60.8262H63.7972V58.95H73.5471V60.8262H69.8725V72.9371H67.4749ZM74.3245 58.95H76.7057V72.9371H74.3245V58.95ZM84.0985 71.1761C81.5982 71.1761 80.7196 68.4189 80.7196 65.7412C80.7196 63.1646 81.718 60.7063 84.0985 60.7063C86.4758 60.7063 87.4711 63.1646 87.4711 65.7412C87.4711 68.4189 86.5941 71.1761 84.0985 71.1761ZM84.0985 73.1737C87.7536 73.1737 90.0306 69.9185 90.0306 65.7404C90.0306 61.8254 87.517 58.7087 84.0985 58.7087C80.683 58.7087 78.1586 61.8254 78.1586 65.7404C78.1594 69.9193 80.4402 73.1737 84.0985 73.1737ZM101.959 72.9371H100.222C97.9416 69.7185 95.6833 66.5202 93.4281 62.9055H93.4087V72.9371H91.4936V58.95H93.2305C95.5059 62.146 97.7642 65.3218 99.9984 68.9178H100.04V58.95H101.959V72.9371H101.959ZM106.514 67.4011C107.075 65.5622 107.632 63.8642 108.134 61.7055H108.174C108.733 63.8642 109.232 65.563 109.75 67.4011H106.514ZM107.435 58.95L102.601 72.9371H104.68L105.895 69.1193H110.113L111.212 72.9371H113.888L109.432 58.95H107.435ZM114.585 58.95H116.967V71.0578H121.7V72.9371H114.585V58.95ZM51.8139 84.6363V90.4089C50.5338 90.9109 49.1945 91.268 47.8397 91.268C43.7223 91.268 41.1255 88.0713 41.1255 83.9546C41.1255 80.1369 43.7223 76.8016 47.9183 76.8016C49.2147 76.8016 50.5143 77.2833 51.3143 77.8817L50.5345 79.54C49.8964 79.1439 48.8949 78.8038 47.9774 78.8038C45.4219 78.8038 43.6818 80.8224 43.6818 83.9998C43.6818 87.3141 45.681 89.2704 47.7393 89.2704C48.3758 89.2704 48.9182 89.1942 49.4202 88.9319V84.6363H51.8139ZM60.3895 78.9237H56.3888V82.7578H60.3047V84.6363H56.3888V89.149H61.1039V91.0299H53.9897V77.042H60.3895V78.9237ZM67.7815 89.2697C65.2812 89.2697 64.401 86.5149 64.401 83.8356C64.401 81.2606 65.4002 78.8031 67.7815 78.8031C70.1573 78.8031 71.1541 81.2606 71.1541 83.8356C71.1541 86.5149 70.2732 89.2697 67.7815 89.2697ZM67.7815 91.268C71.4358 91.268 73.712 88.0113 73.712 83.8348C73.712 79.9198 71.1961 76.8008 67.7815 76.8008C64.3606 76.8008 61.8462 79.9198 61.8462 83.8348C61.8455 88.0121 64.1193 91.268 67.7815 91.268ZM85.2191 84.6363V90.4089C83.9389 90.9109 82.6036 91.268 81.2433 91.268C77.129 91.268 74.5299 88.0713 74.5299 83.9546C74.5299 80.1369 77.129 76.8016 81.325 76.8016C82.6246 76.8016 83.921 77.2833 84.7187 77.8817L83.9389 79.54C83.2993 79.1439 82.3063 78.8038 81.3857 78.8038C78.8247 78.8038 77.0862 80.8224 77.0862 83.9998C77.0862 87.3141 79.0862 89.2704 81.1445 89.2704C81.7857 89.2704 82.3227 89.1942 82.8238 88.9319V84.6363H85.2191ZM89.8197 78.9237H90.8757C92.2904 78.9237 93.092 79.7392 93.092 81.1796C93.092 83.0558 91.955 83.8939 90.815 83.9539C90.5745 83.978 90.0142 83.9982 89.8197 84.0153V78.9237ZM95.8919 91.0299L93.0694 85.2379C94.6079 84.4208 95.4919 82.7578 95.4919 81.0793C95.4919 78.3595 93.8305 77.042 91.1527 77.042H87.4167V91.0299H89.8197V85.7554H90.8975L93.1511 91.0299H95.8919ZM99.8466 85.4947C100.405 83.6535 100.964 81.957 101.465 79.7991H101.505C102.064 81.957 102.562 83.6535 103.082 85.4947H99.8466ZM100.764 77.042L95.9277 91.0299H98.0054L99.2256 87.2121H103.443L104.536 91.0299H107.218L102.76 77.042H100.764ZM111.712 77.042H107.976V91.0299H110.375V85.7554H111.451C114.31 85.7554 116.05 83.4372 116.05 81.0793C116.05 78.3587 114.39 77.042 111.712 77.042ZM111.376 83.9546C111.127 83.9772 110.542 83.9959 110.375 84.0122V78.9237H111.451C112.849 78.9237 113.652 79.7392 113.652 81.1796C113.652 83.0558 112.516 83.8947 111.376 83.9546ZM127.157 91.0299H124.76V84.2986H119.781V91.0299H117.41V77.042H119.781V82.4169H124.76V77.0817H127.157V91.0299ZM129.453 77.042H131.836V91.0299H129.453V77.042ZM142.62 79.5812C142.04 79.2209 141.085 78.8031 140.161 78.8031C137.72 78.8031 135.948 80.8217 135.948 83.999C135.948 87.3133 137.905 89.2697 140.224 89.2697C141.072 89.2657 141.903 89.023 142.62 88.5693L143.282 90.3093C142.558 90.8081 141.283 91.268 140.126 91.268C136.009 91.268 133.41 88.0713 133.41 83.9546C133.41 80.1369 135.986 76.8016 140.161 76.8016C141.403 76.8016 142.558 77.3245 143.382 77.8817L142.62 79.5812Z" fill="black"/>
</g>
<defs>
<clipPath id="clip0_48_869">
<rect width="150" height="150" fill="white"/>
</clipPath>
</defs>
</svg>
