<svg width="150" height="150" viewBox="0 0 150 150" fill="none" xmlns="http://www.w3.org/2000/svg">
<g style="mix-blend-mode:luminosity" clip-path="url(#clip0_48_864)">
<path d="M24.9754 91.5085L15.1617 91.3289C11.9842 91.2664 8.79885 91.3914 5.68377 90.7434C0.944788 89.7753 0.609078 85.0285 0.257753 81.0468C-0.226294 75.449 -0.0389207 69.7498 0.874523 64.1988C1.3898 61.0838 3.41967 59.2256 6.55817 59.0227C17.1526 58.2888 27.8172 58.3747 38.3882 58.7182C39.5046 58.7494 40.6289 58.9212 41.7297 59.1163C47.1635 60.0688 47.2962 65.448 47.6475 69.9762C47.9989 74.5512 47.8505 79.1497 47.1791 83.6935C46.6404 87.4565 45.6099 90.6106 41.2612 90.9151C35.8118 91.3133 30.4873 91.6334 25.0222 91.5319C25.0222 91.5085 24.991 91.5085 24.9754 91.5085ZM19.2059 81.9837C23.3125 79.6259 27.341 77.3071 31.4241 74.965C27.3097 72.6072 23.289 70.2885 19.2059 67.9463V81.9837Z" fill="#FF0000"/>
<path d="M126.617 87.2301C126.43 87.9952 126.266 88.5963 126.102 89.2365H122.261V59.6082H126.742V70.5383C126.977 70.2416 127.094 70.1167 127.195 69.9839C127.96 68.93 128.952 68.2429 130.232 67.9775C132.27 67.5793 134.011 68.4771 134.628 70.4368C135.026 71.6547 135.283 72.9585 135.315 74.2311C135.377 77.5023 135.33 80.7657 135.213 84.0369C135.166 85.0362 134.862 86.059 134.479 86.9959C133.222 90.0875 129.116 90.5559 127.078 87.8781C126.953 87.7141 126.836 87.5346 126.617 87.2301ZM126.836 79.0793V84.4975C126.836 85.3798 127.304 85.9185 128.187 86.1214C129.053 86.3244 129.756 85.9887 130.107 85.1846C130.256 84.8489 130.404 84.4975 130.412 84.1462C130.498 80.836 130.576 77.5257 130.599 74.2076C130.599 73.5909 130.451 72.9507 130.263 72.3495C129.912 71.2643 128.944 70.9442 127.991 71.5766C127.273 72.0607 126.836 72.7477 126.836 73.6611V79.0793ZM114.657 68.3991H119.349V89.2521H115.687C115.555 88.4636 115.422 87.6517 115.266 86.6992C115.016 87.0661 114.868 87.3003 114.711 87.5346C113.493 89.2912 111.768 89.8923 109.73 89.5722C107.989 89.2912 106.943 87.9483 106.709 85.7467C106.639 85.0909 106.607 84.4273 106.607 83.7715C106.592 78.892 106.607 73.9968 106.607 69.1173V68.3835H111.354V69.2344C111.354 73.95 111.339 78.6578 111.37 83.3733C111.37 84.0447 111.44 84.7396 111.557 85.411C111.69 86.098 112.19 86.3479 112.861 86.301C113.946 86.2151 114.696 85.411 114.696 84.3336V69.3203C114.657 69.0158 114.657 68.7348 114.657 68.3991ZM82.3505 68.3835H87.066V69.2657C87.066 73.9578 87.0504 78.6421 87.0817 83.3187C87.0817 83.9901 87.1441 84.6849 87.2846 85.3407C87.4642 86.1136 87.917 86.3635 88.6899 86.262C89.7595 86.1136 90.4075 85.372 90.4153 84.2868V69.3516V68.4147H95.1075V89.2521H91.4615C91.3288 88.4792 91.1961 87.6829 91.0243 86.6758C90.7901 87.0271 90.6574 87.2301 90.5246 87.4409C89.3067 89.2287 87.5969 89.8845 85.5124 89.5644C83.8417 89.3146 82.8189 88.0811 82.5066 86.059C82.4208 85.4266 82.3583 84.802 82.3583 84.1696C82.3427 79.1028 82.3427 74.0125 82.3427 68.9456L82.3505 68.3835ZM79.9302 79.5165C79.9146 80.2192 79.8678 80.9218 79.8288 81.6245C79.6492 83.7324 79.5633 86.7226 77.8613 88.2606C76.7761 89.2287 75.4021 89.58 73.9811 89.6269C73.3488 89.6425 72.7086 89.6425 72.0762 89.5566C69.086 89.1038 67.6963 87.7844 67.1967 84.4975C66.6268 80.7032 66.5799 76.8465 67.2591 73.0522C67.9618 69.1251 70.382 67.7355 74.1451 67.9931C77.6583 68.2429 79.2276 70.5461 79.6414 73.8251C79.8678 75.7066 79.9771 77.6116 79.9302 79.5165ZM75.1522 78.7983C75.1522 77.4633 75.1835 76.1204 75.1366 74.7854C75.1054 74.0125 75.0039 73.2317 74.8399 72.4666C74.6526 71.5844 74.0905 71.1628 73.3878 71.1784C72.7008 71.1941 72.2167 71.6156 71.9669 72.4354C71.881 72.7399 71.7873 73.0522 71.7873 73.3567C71.7873 75.449 71.7717 77.5491 71.7561 79.6415C71.7405 81.5933 71.4906 83.6388 72.1074 85.5047C72.2948 86.0746 72.7788 86.3869 73.4112 86.3869C74.028 86.3869 74.434 86.0824 74.6604 85.5359C74.8399 85.1143 74.9961 84.6537 74.9961 84.2009C75.0507 82.4052 75.1522 80.6018 75.1522 78.7983ZM60.3107 74.8713C60.7245 72.8492 61.1149 70.874 61.5443 68.8909C62.083 66.3692 62.6841 63.8475 63.215 61.3179C63.3477 60.7012 63.5976 60.5528 64.1831 60.5684C65.4401 60.6153 66.7204 60.5841 68.0633 60.5841C67.6261 62.1923 67.1967 63.7226 66.7751 65.2293C65.4401 69.9605 64.105 74.7073 62.7856 79.4541C62.6841 79.821 62.6373 80.2192 62.6373 80.6096C62.6217 83.2016 62.6373 85.7857 62.6373 88.3777V89.2209H58.0544C58.0388 88.9867 58.0076 88.7525 58.0076 88.5183C58.0076 87.0505 57.8905 85.5749 58.0232 84.1228C58.3589 80.633 57.2503 77.4242 56.3525 74.1764C55.1658 69.8824 53.9635 65.5729 52.7768 61.2789C52.7143 61.0759 52.6909 60.8573 52.6284 60.6075H57.3049C58.2887 65.3465 59.2802 70.0854 60.3107 74.8713ZM149.977 80.3129H142.076C142.162 81.8977 142.193 83.4045 142.357 84.8957C142.474 85.9341 143.044 86.3791 143.942 86.3869C144.878 86.4025 145.425 85.9341 145.644 84.9035C145.714 84.5678 145.761 84.2321 145.792 83.8886C145.823 83.5841 145.839 83.2562 145.862 82.819C147.197 82.8893 148.501 82.9673 149.789 83.022C150.539 85.247 149.188 88.1045 146.916 88.9867C145.128 89.6893 143.294 89.6893 141.467 89.1506C140.116 88.7525 139.109 87.8937 138.656 86.5743C138.235 85.3407 137.836 84.0525 137.75 82.7643C137.516 79.5868 137.43 76.378 137.914 73.1927C138 72.6618 138.149 72.1543 138.313 71.6391C138.968 69.5155 140.397 68.2117 142.607 67.9931C143.809 67.876 145.05 67.9228 146.237 68.1258C148.157 68.4615 149.18 69.8434 149.625 71.6547C149.828 72.5057 149.977 73.3801 150.008 74.2467C150.016 76.2375 149.977 78.2127 149.977 80.3129ZM145.487 77.5726C145.487 76.0033 145.503 74.5277 145.472 73.0444C145.472 72.693 145.339 72.3261 145.206 71.9904C144.941 71.3346 144.387 71.155 143.723 71.155C143.059 71.155 142.638 71.4907 142.474 72.0919C141.974 73.8954 142.138 75.7379 142.154 77.5882C143.348 77.5726 144.433 77.5726 145.487 77.5726Z" fill="#282828"/>
<path d="M98.73 64.4096H94.0847V60.6465H107.95V64.3861H103.336V89.2209H98.7378L98.73 64.4096Z" fill="#282828"/>
</g>
<defs>
<clipPath id="clip0_48_864">
<rect width="150" height="150" fill="white"/>
</clipPath>
</defs>
</svg>
