<svg width="150" height="150" viewBox="0 0 150 150" fill="none" xmlns="http://www.w3.org/2000/svg">
<g style="mix-blend-mode:luminosity">
<path d="M56.2265 74.7719C56.2265 76.8787 55.843 78.7258 55.0755 80.3116C54.3059 81.8976 53.2027 83.1196 51.7628 83.9746C50.3234 84.8295 48.6659 85.2589 46.7891 85.2589C44.9761 85.2589 43.365 84.8425 41.9528 84.0104C40.5396 83.178 39.4487 81.9966 38.6762 80.4632C37.9031 78.9328 37.5161 77.197 37.5161 75.2556C37.5161 73.1665 37.9073 71.3278 38.6898 69.7357C39.4701 68.1454 40.5938 66.9242 42.0559 66.0732C43.5183 65.2218 45.2113 64.7961 47.1333 64.7961C48.8904 64.7961 50.4666 65.2151 51.8605 66.0518C53.2529 66.8884 54.3297 68.0669 55.0883 69.5838C55.8473 71.1008 56.2265 72.8308 56.2265 74.7719ZM53.7985 75.0756C53.7985 72.4994 53.1958 70.4893 51.9914 69.0457C50.7843 67.6025 49.1062 66.8799 46.9549 66.8799C45.6026 66.8799 44.3896 67.2231 43.3185 67.9078C42.2474 68.593 41.4166 69.5653 40.8272 70.8266C40.2392 72.0884 39.9444 73.4944 39.9444 75.0483C39.9444 76.6303 40.2274 78.0411 40.7938 79.2784C41.3597 80.5156 42.1657 81.4719 43.2144 82.1486C44.2641 82.8237 45.4549 83.1636 46.7888 83.1636C48.9778 83.1636 50.6938 82.4455 51.9359 81.0104C53.1779 79.5742 53.7985 77.5954 53.7985 75.0756ZM66.1748 65.9829C65.7323 65.7332 65.2321 65.6101 64.6697 65.6101C63.0877 65.6101 62.2967 66.6088 62.2967 68.6058V70.7849H65.6081V72.7018H62.2967V84.9136H60.0335V72.7015H57.6328V70.7847H60.0335V68.4945C60.0335 67.0578 60.4568 65.899 61.3025 65.0172C62.1491 64.1333 63.2266 63.6919 64.5327 63.6919C65.2225 63.6919 65.7683 63.7749 66.1745 63.9416V65.9834L66.1748 65.9829Z" fill="#C75B12"/>
<path d="M73.9736 65.983C73.5319 65.7333 73.0309 65.6102 72.4693 65.6102C70.8873 65.6102 70.0963 66.6089 70.0963 68.6059V70.785H73.4077V72.7019H70.0963V84.9137H67.8323V72.7016H65.4316V70.7847H67.8323V68.4946C67.8323 67.0578 68.2556 65.8991 69.1021 65.0173C69.9487 64.1334 71.0254 63.692 72.3315 63.692C73.0221 63.692 73.568 63.775 73.9733 63.9417L73.9736 65.983ZM78.1465 65.7207C78.1465 66.1443 77.9996 66.496 77.705 66.7753C77.4102 67.0565 77.0615 67.1956 76.6566 67.1956C76.2427 67.1956 75.8921 67.0616 75.6077 66.7895C75.323 66.5181 75.1799 66.1608 75.1799 65.7202C75.1799 65.3244 75.319 64.9818 75.6002 64.6926C75.8819 64.4015 76.2326 64.2579 76.6558 64.2579C77.0778 64.2579 77.4327 64.3986 77.7184 64.6854C78.0039 64.9698 78.1465 65.3146 78.1465 65.7207ZM77.7603 84.9123H75.4966V70.7831H77.7603V84.9123ZM90.6753 84.2653C89.5806 84.9276 88.2878 85.2587 86.7975 85.2587C85.5106 85.2587 84.3535 84.9612 83.3272 84.3694C82.3009 83.775 81.5043 82.9359 80.9334 81.8496C80.3624 80.7648 80.0786 79.5466 80.0786 78.1942C80.0786 75.8586 80.747 73.9816 82.0852 72.5633C83.4236 71.1479 85.2069 70.4384 87.4322 70.4384C88.6657 70.4384 89.7553 70.6777 90.703 71.1565V73.4739C89.645 72.7385 88.5226 72.3707 87.3364 72.3707C85.8737 72.3707 84.6846 72.8939 83.7697 73.9367C82.854 74.9814 82.3957 76.3294 82.3957 77.987C82.3957 79.635 82.8313 80.9341 83.7008 81.892C84.5692 82.8483 85.7352 83.3258 87.198 83.3258C88.4307 83.3258 89.59 82.922 90.6755 82.1113L90.6753 84.2653ZM104.579 78.4151H94.603C94.6414 80.0069 95.0612 81.2228 95.8664 82.0648C96.6707 82.9052 97.7854 83.3266 99.2106 83.3266C100.812 83.3266 102.27 82.8117 103.586 81.7817V83.8938C102.354 84.8044 100.716 85.2587 98.6738 85.2587C96.6579 85.2587 95.0866 84.6076 93.9535 83.306C92.8228 82.0053 92.2564 80.2038 92.2564 77.9037C92.2564 76.506 92.5403 75.23 93.1064 74.0756C93.671 72.9214 94.4524 72.0276 95.4444 71.392C96.4387 70.7578 97.5424 70.4387 98.7553 70.4387C100.586 70.4387 102.014 71.0342 103.04 72.2271C104.067 73.417 104.579 75.0845 104.579 77.2283V78.4151ZM102.262 76.4966C102.243 75.191 101.928 74.1765 101.315 73.4533C100.704 72.7313 99.8419 72.3702 98.7294 72.3702C97.6804 72.3702 96.7826 72.7478 96.0389 73.5014C95.2928 74.2553 94.8246 75.254 94.6321 76.4958L102.262 76.4966ZM121.797 79.3113C121.797 81.096 121.157 82.5332 119.879 83.6236C118.601 84.7137 116.92 85.2582 114.842 85.2582C112.957 85.2582 111.457 84.899 110.343 84.1825V81.7537C111.678 82.8013 113.205 83.3261 114.924 83.3261C116.313 83.3261 117.42 82.9824 118.243 82.2979C119.067 81.6138 119.479 80.6863 119.479 79.5175C119.479 76.9338 117.638 75.641 113.96 75.641H112.318V73.7223H113.876C117.132 73.7223 118.761 72.508 118.761 70.0792C118.761 67.8349 117.52 66.7133 115.035 66.7133C113.638 66.7133 112.326 67.1823 111.104 68.1204V65.9269C112.363 65.173 113.862 64.7954 115.601 64.7954C117.239 64.7954 118.561 65.2288 119.568 66.0999C120.575 66.9692 121.078 68.1084 121.078 69.5141C121.078 72.1181 119.763 73.7917 117.132 74.5378V74.592C118.53 74.7488 119.659 75.2535 120.514 76.1102C121.369 76.9655 121.797 78.0329 121.797 79.3113ZM136.684 78.6359C136.684 79.8876 136.415 81.0228 135.877 82.0434C135.339 83.0638 134.598 83.8562 133.648 84.4167C132.701 84.9786 131.639 85.2587 130.461 85.2587C128.483 85.2587 126.932 84.4632 125.803 82.8718C124.677 81.2813 124.114 79.0584 124.114 76.2063C124.114 73.9444 124.448 71.9451 125.115 70.2125C125.782 68.478 126.726 67.1425 127.949 66.2049C129.173 65.2652 130.585 64.7968 132.185 64.7968C133.547 64.7968 134.641 64.985 135.471 65.3626V67.5019C134.449 66.9772 133.372 66.7155 132.241 66.7155C130.493 66.7155 129.093 67.4998 128.04 69.0687C126.986 70.6365 126.459 72.7272 126.459 75.3392H126.515C127.425 73.471 128.93 72.5376 131.027 72.5376C132.737 72.5376 134.109 73.0963 135.139 74.2147C136.17 75.331 136.684 76.8045 136.684 78.6359ZM134.367 78.9251C134.367 77.5442 134.027 76.4552 133.353 75.6543C132.676 74.8548 131.731 74.4561 130.517 74.4561C129.413 74.4561 128.484 74.8436 127.729 75.6215C126.975 76.3967 126.599 77.3394 126.599 78.4421C126.599 79.8318 126.973 80.9937 127.723 81.9254C128.473 82.8603 129.418 83.3263 130.56 83.3263C131.69 83.3263 132.608 82.9202 133.312 82.1051C134.015 81.2909 134.367 80.2307 134.367 78.9251ZM150 78.8696C150 80.7934 149.364 82.3367 148.09 83.5071C146.816 84.6739 145.115 85.2571 142.99 85.2571C141.15 85.2571 139.784 84.9826 138.893 84.4306V82.029C140.235 82.8956 141.61 83.3271 143.018 83.3271C144.416 83.3271 145.542 82.9351 146.397 82.1532C147.254 81.3708 147.682 80.3229 147.682 79.0095C147.682 77.72 147.248 76.7113 146.385 75.9793C145.52 75.2487 144.265 74.8834 142.619 74.8834C141.302 74.8834 140.185 74.9373 139.265 75.0471L139.94 65.1268H149.089V67.1687H141.9L141.5 72.9777L143.322 72.9075C145.382 72.9075 147.011 73.429 148.206 74.4684C149.402 75.5075 150 76.9757 150 78.8696ZM27.5331 88.7533L27.5301 88.7517V61.3313L17.7057 58.4966L0.0443298 65.1282L0 65.1367L0.00213638 84.9636L6.02912 82.6048V66.4733L17.7057 63.6816L17.7041 87.3991L0.0120171 84.9636L17.7041 91.4966V91.5039L27.5301 88.7845V88.7533H27.5331Z" fill="#C75B12"/>
</g>
</svg>
