<svg width="85" height="111" viewBox="0 0 85 111" fill="none" xmlns="http://www.w3.org/2000/svg">
<path fill-rule="evenodd" clip-rule="evenodd" d="M84.1493 44.2033C84.0793 52.4614 81.7698 60.2996 79.1104 68.0678C76.0311 77.0957 71.6221 85.5638 67.3531 94.1019C65.4635 97.881 63.434 101.59 61.4044 105.369C61.1245 105.789 60.5646 106.209 60.0048 106.419C56.5755 107.749 53.1463 109.008 49.6471 110.198C49.0173 110.408 48.0375 110.338 47.4776 109.918C45.4481 108.589 43.5585 107.119 41.5989 105.649C36.4201 101.52 31.0313 97.6011 26.1325 93.1921C14.4451 82.5545 6.18701 69.6775 2.12794 54.3509C-0.461472 44.5532 -1.02135 34.6854 2.33788 24.9576C5.83708 14.8799 12.8355 7.88154 22.4933 3.75248C31.4512 -0.0966461 40.7591 -0.656518 50.4169 0.603195C62.5242 2.21283 70.6423 9.28119 76.7309 19.079C82.2597 27.827 84.1493 35.1753 84.1493 44.2033ZM74.4914 74.3664C74.4914 74.413 74.4681 74.4364 74.4215 74.4364C74.4215 74.483 74.4215 74.5063 74.4215 74.5063C74.4215 74.5063 74.4448 74.5063 74.4914 74.5063C74.4914 74.4597 74.4914 74.413 74.4914 74.3664ZM70.5024 73.0367C67.3531 77.7256 67.3531 78.3555 71.2022 81.0149C71.2722 81.0848 71.3421 81.0849 71.6921 81.0849C72.5785 78.9387 73.4883 76.7458 74.4215 74.5063C72.6719 75.2062 71.7621 73.5266 70.5024 73.0367ZM76.9409 68.6977C75.4712 67.9278 74.2815 67.228 72.9518 66.5982C72.6019 67.438 72.4619 68.2778 72.042 68.9076C70.9922 70.5173 71.5521 71.567 73.0218 72.4068C73.8616 72.8267 74.6314 73.3166 74.4914 74.3664C75.3312 72.4068 76.1011 70.5173 76.9409 68.6977ZM76.1011 40.914C76.1711 33.4957 74.7014 26.2173 71.832 20.1287C66.7232 9.35118 58.3951 3.1226 46.4278 2.07284C38.3097 1.373 30.4015 2.28282 22.9832 5.64206C12.2056 10.6109 5.06727 18.7991 2.82778 30.6963C1.35811 38.5346 1.98796 46.2328 4.01749 53.7911C8.00659 68.7677 15.9848 81.3648 27.4622 91.7225C33.6208 97.2512 40.4092 102.15 46.9177 107.399C47.7575 108.099 48.3174 108.029 48.8773 107.049C51.1868 103.34 53.6362 99.7006 55.9457 95.9215C62.3142 85.4239 68.1229 74.6463 72.182 62.959C74.6547 55.8206 75.9611 48.4723 76.1011 40.914ZM60.5646 102.43C61.6144 100.61 62.5942 98.9308 63.5739 97.2512C62.1043 96.1314 60.7746 95.1517 59.3749 94.0319C58.0452 96.2014 56.9255 98.091 55.6657 100.121C57.3454 100.89 58.885 101.66 60.5646 102.43ZM80.86 33.0058C78.9005 26.4273 76.1711 20.6186 71.7621 15.5798C74.6314 20.6186 76.451 26.0074 77.3608 31.7461C77.4308 32.096 77.8507 32.5859 78.2006 32.6559C78.9704 32.8658 79.7403 32.8658 80.86 33.0058ZM70.7823 82.8345C69.3826 81.9947 68.1929 81.2248 66.8632 80.385C65.8834 82.2513 64.8803 84.1408 63.8539 86.0537C65.2536 86.9635 66.5133 87.7333 67.913 88.6431C68.9394 86.5903 69.8958 84.6541 70.7823 82.8345ZM67.0731 90.3927C65.6035 89.4829 64.3437 88.7131 62.9441 87.8033C62.0343 89.4829 61.1945 90.8826 60.4247 92.3523C61.8243 93.402 63.0841 94.3818 64.4137 95.4316C65.3935 93.682 66.1633 92.1423 67.0731 90.3927ZM77.5008 66.8781C78.0607 65.1285 78.5505 63.7288 78.9005 62.2591C79.0404 61.9792 78.8305 61.4193 78.6205 61.2794C77.6407 60.5795 76.521 60.0196 75.4712 59.3198C74.9114 60.8594 74.4215 62.2592 74.0016 63.7288C73.9316 64.0787 74.0716 64.7786 74.3515 64.9885C75.2613 65.6184 76.3111 66.1783 77.5008 66.8781ZM51.0468 107.189C51.1401 107.329 51.2334 107.469 51.3267 107.609C54.0328 106.582 56.7388 105.579 59.4449 104.599C59.4449 104.46 59.4215 104.296 59.3749 104.11C58.0452 103.48 56.6455 102.71 55.2458 102.15C54.9659 102.01 54.336 102.22 54.1261 102.43C53.0763 104.04 52.0266 105.649 51.0468 107.189ZM82.1197 41.054C80.65 41.054 79.3903 41.054 78.0606 41.054C77.9907 42.3837 77.9207 43.5034 77.8507 44.6932C77.8507 44.9731 77.9906 45.463 78.1306 45.533C79.2504 45.8129 80.3701 46.0228 81.4898 46.1628C81.6298 46.2328 82.1197 45.6729 82.1197 45.393C82.1897 43.9233 82.1197 42.5236 82.1197 41.054ZM77.7807 47.6325C76.8009 51.6216 77.1509 52.1814 81.3499 53.0912C81.5832 51.5049 81.7931 49.9653 81.9797 48.4723C80.4401 48.1223 79.1804 47.9124 77.7807 47.6325ZM79.6703 59.5997C80.1602 57.9201 80.5101 56.4505 80.86 55.0508C79.3903 54.5609 78.1306 54.141 76.7309 53.6511C76.451 54.9575 76.1944 56.1938 75.9611 57.3602C77.1508 58.0601 78.2706 58.7599 79.6703 59.5997ZM77.8507 34.6854C77.9207 36.2251 77.9907 37.5548 78.0606 38.9545C79.3903 39.0944 80.58 39.1644 81.9797 39.2344C81.6998 37.4848 81.4898 36.0151 81.2799 34.6854C80.0202 34.6854 79.0404 34.6854 77.8507 34.6854Z" fill="#1A91B2"/>
<path fill-rule="evenodd" clip-rule="evenodd" d="M18.1543 40.914C18.5042 33.9156 20.1838 27.617 25.3626 22.6482C27.5322 20.5487 30.1915 19.149 33.0609 18.869C42.9286 17.8193 51.3967 20.4787 57.2054 29.1567C59.5149 32.7259 60.4247 36.715 60.0747 40.844C59.3749 51.0617 53.2863 58.9699 44.3983 60.7895C38.9396 61.9092 33.6208 61.4893 28.5819 59.0399C22.7732 56.2405 19.344 51.5516 18.5042 45.113C18.3642 43.7134 18.2943 42.2437 18.1543 40.914ZM58.1852 41.1239C58.1852 36.2251 57.2054 32.8658 55.5258 30.2064C51.8866 24.4678 46.4978 21.8084 40.0593 20.6886C37.6798 20.2687 35.5803 20.9686 34.1806 22.6482C32.431 24.8177 30.7514 27.1971 29.4917 29.7166C27.7421 33.2158 27.0423 37.0649 27.2522 40.984C27.5322 45.323 29.0718 49.1022 31.1013 52.8813C32.8509 56.0306 36.1402 57.0803 38.5896 59.2498C38.7996 59.3898 39.1495 59.3898 39.3595 59.3198C41.8789 58.8999 44.6083 58.8999 46.9177 57.9201C54.826 54.5609 57.6253 47.7724 58.1852 41.1239ZM29.2118 53.5811C28.5819 52.1815 27.9521 50.8518 27.2522 49.592C27.1123 49.3121 26.8323 49.0322 26.6224 48.9622C24.8728 48.6822 23.1932 48.4723 21.3736 48.1924C22.0734 52.3214 24.8728 54.211 29.2118 53.5811ZM26.1325 46.9327C25.9225 45.463 25.7126 44.2033 25.5026 42.9436C25.4326 42.7336 25.2227 42.4537 25.0127 42.4537C23.4731 41.9638 21.9334 41.5439 20.1138 41.054C20.2538 42.5936 20.3238 43.9933 20.5338 45.323C20.6037 45.6029 21.0236 46.0229 21.3736 46.0928C22.8432 46.4428 24.4529 46.6527 26.1325 46.9327ZM27.3222 28.9467C29.1418 26.1474 30.8214 23.558 32.571 20.8986C29.4917 22.2983 26.2724 23.6279 24.3129 26.9172C25.4326 27.6637 26.4357 28.3402 27.3222 28.9467ZM25.7126 34.8254C26.0625 33.5657 26.4124 32.5859 26.6224 31.5362C26.6924 31.2562 26.5524 30.8363 26.3424 30.6263C25.3626 29.9265 24.3129 29.2966 23.1232 28.5268C22.6333 29.7865 22.1434 30.8363 21.7235 31.9561C21.6535 32.236 21.7935 32.8658 22.0034 33.0058C23.1232 33.6357 24.3129 34.1955 25.7126 34.8254ZM25.2227 40.5641C25.2927 39.4443 25.3626 38.5346 25.3626 37.6948C25.3626 37.3448 25.1527 36.785 24.9427 36.645C23.683 36.0151 22.3533 35.4553 20.8837 34.7554C20.6737 35.9451 20.4638 36.9949 20.3238 38.1146C20.3238 38.3946 20.6037 38.9544 20.8837 39.0244C22.2134 39.5843 23.683 40.0042 25.2227 40.5641ZM27.0423 56.2405C29.1884 57.0803 31.3113 57.9435 33.4108 58.8299C31.8712 56.5905 30.0516 55.0508 27.0423 56.2405Z" fill="#1A91B2"/>
<path d="M50.4869 99.4207C50.207 98.6509 49.857 98.161 49.927 97.7411C49.997 97.1812 50.3469 96.6913 50.5569 96.2014C53.8461 90.1828 57.2053 84.1642 60.4946 78.0756C63.3639 72.7568 66.0933 67.228 67.8429 61.3493C68.0529 60.5095 68.1929 59.0399 69.5226 59.3898C70.9222 59.8797 69.8725 61.0694 69.6625 61.9092C66.4433 72.8967 60.0747 82.4146 54.8959 92.4223C53.9161 94.2419 52.9363 96.0615 51.8866 97.881C51.6066 98.3009 51.1867 98.6509 50.4869 99.4207Z" fill="#1A91B2"/>
<path d="M4.927 49.522C5.13695 49.312 5.41687 48.9621 5.69681 48.5422C6.11671 48.9621 6.74658 49.2421 6.88655 49.662C8.00629 53.2312 8.8461 56.8003 10.0358 60.3695C10.8057 62.819 11.9254 65.1285 12.8352 67.5779C12.9752 68.0678 12.7652 68.6977 12.6952 69.3275C12.2053 69.0476 11.4355 68.8376 11.1556 68.4177C10.3858 67.088 9.68591 65.6183 9.266 64.2186C7.86632 59.7397 6.53663 55.3307 5.20693 50.8517C5.13695 50.5018 5.06697 50.1518 4.927 49.522Z" fill="#1A91B2"/>
<path d="M73.3718 41.1939C72.7187 45.1596 72.0888 49.1021 71.4823 53.0212C71.4123 53.511 71.3423 54.001 71.0624 54.3509C70.7824 54.7008 70.2925 54.9107 69.8726 55.1207C69.7327 54.7708 69.4527 54.4209 69.3128 54.001C69.2428 53.721 69.3828 53.3711 69.4528 53.0912C71.1324 47.4924 71.1324 41.8237 70.8524 36.0851C70.8524 35.4552 71.3423 34.8953 71.6222 34.3354C71.9722 34.8253 72.672 35.3152 72.742 35.8751C72.8819 37.6247 72.812 39.3743 72.812 41.1239C72.9986 41.1239 73.1852 41.1472 73.3718 41.1939Z" fill="#1A91B2"/>
<path d="M68.4027 51.2716C67.6329 53.4411 66.933 55.4007 66.2332 57.3603C65.8833 58.27 65.5334 59.2498 64.9735 60.0196C64.6236 60.5795 63.8537 60.7895 63.2939 61.2094C63.2939 60.5795 63.0839 59.8797 63.2239 59.3198C63.8538 57.5702 64.6936 55.9606 65.3234 54.281C65.7433 53.3012 65.8133 52.1814 66.1632 51.2017C66.3732 50.5718 66.7931 50.1519 67.143 49.592C67.5629 50.0819 67.9128 50.6418 68.4027 51.2716Z" fill="#1A91B2"/>
<path d="M8.42659 39.2344C8.70653 39.7942 9.1964 40.2841 9.26638 40.844C9.75627 42.7336 10.0362 44.6231 10.4561 46.4427C10.6661 47.4225 11.156 48.4023 11.3659 49.3821C11.4359 49.872 11.2259 50.5018 11.086 50.9917C10.5961 50.7118 9.75627 50.5018 9.61631 50.0819C9.05643 48.6122 8.63653 47.0726 8.21662 45.5329C7.84338 43.9466 7.56345 42.3603 7.37683 40.774C7.30684 40.3541 7.65675 39.7942 7.79672 39.3043C8.03 39.3043 8.23996 39.281 8.42659 39.2344Z" fill="#1A91B2"/>
<path d="M4.4375 39.0944C4.8574 36.5749 5.20732 33.9855 5.6972 31.4661C5.76719 31.1162 6.32708 30.7663 6.677 30.4863C6.95693 30.9062 7.51679 31.3261 7.51679 31.676C7.51679 32.6558 7.23685 33.6356 7.09689 34.6154C6.88693 36.5749 6.74697 38.5345 6.46703 40.424C6.39705 40.9839 5.97714 41.5438 5.6972 42.0337C5.34728 41.5438 4.8574 41.0539 4.64744 40.494C4.43749 40.0741 4.57748 39.5842 4.57748 39.0944C4.53082 39.0944 4.48416 39.0944 4.4375 39.0944Z" fill="#1A91B2"/>
</svg>
