<svg width="128" height="139" viewBox="0 0 128 139" fill="none" xmlns="http://www.w3.org/2000/svg">
<path d="M86.6693 89.2578C87.8901 88.0065 89.0456 86.6315 89.5056 84.9075C90.0629 82.8198 89.6051 80.4555 89.3308 78.3584C88.9648 75.5569 88.4535 72.7765 88.0401 69.9818C94.6005 67.5851 100.743 63.0902 105.459 58.8595C114.489 50.7595 121.276 40.1439 124.715 28.503C125.528 25.7508 126.159 22.9421 126.591 20.105C126.981 17.5479 127.602 14.3999 126.267 12.0061C123.529 7.09406 115.289 7.78469 110.589 8.00073C110.338 8.01213 110.086 8.02818 109.835 8.04307C109.834 8.03644 109.834 8.03019 109.833 8.02394C109.815 7.86267 109.599 7.89348 109.569 8.03103C109.567 8.04021 109.566 8.04945 109.565 8.05824C97.4207 8.8296 85.3986 13.3842 76.2384 21.4758C70.934 26.1615 66.5976 32.0086 63.6809 38.4721C58.7035 38.3703 53.5979 38.642 48.6356 39.0082C46.7012 39.1511 45.3946 40.185 43.8036 41.2246C42.8177 41.8688 41.8322 42.5126 40.8464 43.1568C40.2529 43.5449 39.1797 43.9883 38.9109 44.731C38.5981 45.5956 39.2571 46.241 39.9557 46.636C41.816 47.6869 44.2521 48.1746 46.3015 48.7537C50.7521 50.0111 55.308 50.8664 59.904 51.3677C59.9255 51.37 59.9442 51.3681 59.9648 51.3683C59.7577 52.9334 59.6331 54.5114 59.6009 56.0975C58.4281 56.6234 57.8568 58.2795 57.8711 59.5087C57.8996 61.9349 59.4719 64.3424 60.7835 66.2866C62.9152 69.4471 68.6861 76.4999 72.9704 72.4961C73.1581 72.3207 73.0733 72.0022 72.8775 71.917C73.1599 71.7061 73.4338 71.4885 73.6991 71.2548C73.9556 71.2553 74.2146 71.2425 74.4588 71.2306C74.7924 71.3073 75.1267 71.3732 75.4615 71.4317C75.4767 71.4664 75.4926 71.5008 75.5222 71.5331C76.7107 77.1952 77.6728 82.9006 78.9085 88.5531C79.3564 90.6025 79.8653 94.6699 82.8768 92.8936C84.3172 92.0431 85.5147 90.441 86.6693 89.2578ZM120.964 9.23523C122.811 9.69338 124.731 10.5464 125.634 12.3368C126.458 13.9719 126.315 15.851 126.11 17.6127C126.041 18.2022 125.957 18.79 125.87 19.3775C125.789 19.3507 125.698 19.3524 125.61 19.4023C123.021 20.8674 119.15 18.1792 117.557 16.0607C115.929 13.8972 115.608 11.0726 116.382 8.52901C117.95 8.64598 119.489 8.8695 120.964 9.23523ZM115.771 8.49025C114.615 11.5249 115.254 15.0878 117.518 17.477C119.109 19.1563 123.414 22.3403 125.712 20.3696C125.448 21.968 125.119 23.5559 124.73 25.1282C124.607 25.032 124.444 24.9942 124.269 25.0844C120.574 26.9943 115.518 22.006 113.537 19.3157C111.128 16.0431 110.362 12.495 109.898 8.58955C111.855 8.43574 113.832 8.38094 115.771 8.49025ZM60.0102 50.3276C56.1819 49.91 52.3835 49.2711 48.6445 48.3433C47.0887 47.957 45.5423 47.5291 44.0101 47.058C43.2024 46.8095 42.1271 46.633 41.3973 46.2065C40.5932 46.1114 40.2071 45.5874 40.2378 44.6349L41.4189 43.86C42.992 42.8281 44.5441 41.7507 46.1439 40.7605C47.8832 39.684 49.7912 39.8238 51.7778 39.7212C55.6574 39.5202 59.5748 39.4485 63.4384 39.0193C61.8576 42.6409 60.7231 46.4486 60.113 50.3497C60.0808 50.3397 60.0472 50.3317 60.0102 50.3276ZM62.3458 66.9097C61.0886 65.2982 59.9012 63.5193 59.1102 61.6259C58.2675 59.6086 58.4251 58.1281 59.7205 56.804C59.7845 56.8098 59.8489 56.7746 59.853 56.6896C59.8535 56.6827 59.854 56.6757 59.8544 56.6688C60.0085 56.5214 60.1795 56.3759 60.3628 56.2317C60.8304 57.8339 61.5751 59.3777 62.2241 60.9026C62.8973 62.4846 63.5665 64.1023 64.4975 65.5555C63.8675 66.3205 63.4005 67.2945 63.4604 68.2841C63.0605 67.8151 62.688 67.3486 62.3458 66.9097ZM67.52 71.8241C67.546 71.4957 67.5025 71.1505 67.5829 70.8245C67.7076 70.3182 67.9847 69.9275 68.2901 69.5178C68.4443 69.3112 68.1692 69.09 67.9754 69.2231C67.4984 69.5507 67.1879 70.1108 67.0405 70.6606C66.9779 70.8947 66.9204 71.1901 66.9245 71.4749C66.1829 70.9995 65.4801 70.4066 64.8273 69.7627C64.8756 69.4528 64.8863 69.1373 64.9812 68.8328C65.1205 68.386 65.3734 67.9902 65.7099 67.6667C65.9262 67.4587 65.6356 67.0935 65.4124 67.3014C64.9283 67.7514 64.4124 68.531 64.3492 69.2756C64.2109 69.1295 64.0751 68.982 63.942 68.8339C64.0787 67.8141 64.2 66.8052 64.7372 65.9111C64.8205 66.033 64.9017 66.1563 64.9895 66.2749C65.4676 66.9229 66.0312 67.5046 66.6535 68.0266C66.4753 68.4173 66.3025 68.8092 66.1371 69.2058C65.9763 69.5923 65.7487 70.0025 65.7476 70.428C65.7473 70.5543 65.91 70.6939 66.0229 70.5763C66.3143 70.2723 66.4387 69.857 66.5899 69.4699C66.7388 69.0885 66.8789 68.7049 67.0167 68.32C67.9094 69.0105 68.9115 69.5797 69.9608 70.0382C69.2221 70.5285 68.7458 71.5964 69.1101 72.4333C68.5643 72.3074 68.0338 72.0982 67.52 71.8241ZM71.0985 72.4769L71.099 72.4758C71.1231 72.2259 71.0403 71.9823 71.0985 71.7328C71.1273 71.6099 71.1743 71.4925 71.2449 71.3876C71.2815 71.3331 71.337 71.2868 71.3683 71.2304C71.3996 71.1739 71.4011 71.093 71.4625 71.0569C71.5751 70.9908 71.5065 70.823 71.3798 70.8688C71.2785 70.9054 71.1779 70.8746 71.0783 70.9202C70.9995 70.9564 70.9345 71.0245 70.8764 71.0865C70.7377 71.2353 70.6338 71.4151 70.5803 71.6115C70.4934 71.9309 70.5011 72.312 70.7519 72.5308C70.3349 72.576 69.9234 72.5681 69.5197 72.5085C69.4674 71.6945 69.5526 70.8991 70.182 70.2949C70.2259 70.2525 70.2411 70.2047 70.2391 70.16C70.905 70.4361 71.5874 70.668 72.2733 70.8547C72.2792 70.8827 72.2921 70.9095 72.315 70.9265C72.4696 71.042 72.6554 71.1157 72.8563 71.166C72.5356 71.4332 72.2275 71.7156 71.9152 72.0144C71.8282 72.0977 71.8168 72.1988 71.8492 72.2816C71.5966 72.3716 71.3469 72.4312 71.0985 72.4769ZM75.0644 70.4892C74.8608 70.4627 74.6572 70.4409 74.4532 70.4086C74.3792 70.397 74.3167 70.4149 74.2595 70.4425C74.1914 70.3425 74.0529 70.2918 73.9115 70.383C73.8953 70.3936 73.8806 70.4054 73.8644 70.4159C72.3356 69.8063 70.7242 69.4469 69.2435 68.6932C67.3153 67.7114 65.8748 66.2503 64.7953 64.376C63.1009 61.4332 62.2566 57.9797 60.2879 55.2007C60.2327 55.123 60.0979 55.1848 60.1173 55.2768C60.1637 55.4974 60.2184 55.7166 60.277 55.9348C60.1443 55.9422 60.0163 55.9603 59.8948 55.9921C60.2041 51.1867 61.2168 46.4736 62.868 41.9999C62.9125 42.0129 62.9621 42.0077 63.0075 41.9658C64.418 40.6723 65.6906 39.2559 67.1987 38.0669C68.8884 36.7356 70.7481 35.7315 72.605 34.6632C72.763 34.5723 72.6652 34.3437 72.4907 34.4032C69.0523 35.5718 65.4078 38.0772 63.2175 41.0846C63.6736 39.9192 64.1721 38.7702 64.7146 37.6419C66.4092 35.978 67.7783 34.0313 69.5855 32.4465C71.5833 30.6948 73.8277 29.2065 76.1541 27.9291C76.2752 27.8628 76.1969 27.6735 76.0664 27.7298C73.5516 28.8166 71.3011 30.2053 69.2088 31.984C68.1672 32.8698 67.0511 33.8766 66.0905 34.9822C66.5828 34.0982 67.1009 33.228 67.647 32.3745C67.6803 32.4499 67.8013 32.4771 67.8658 32.3996C71.2834 28.2879 76.4905 25.5359 81.0308 22.8604C81.1091 22.8142 81.0591 22.6875 80.9723 22.7278C78.2051 24.0128 75.5853 25.5786 73.0831 27.3217C71.8303 28.1944 70.2372 29.1308 69.0426 30.3156C70.0747 28.8676 71.1785 27.4662 72.3686 26.1303C80.3377 17.1847 91.4117 11.5289 103.15 9.46754C105.169 9.11291 107.303 8.80552 109.468 8.6192C108.787 13.0616 110.98 17.9695 113.813 21.2585C115.814 23.5813 121.136 28.2947 124.48 26.1075C124.476 26.1212 124.473 26.1353 124.469 26.149C121.542 37.1169 115.689 47.319 107.715 55.3972C100.05 63.1614 89.1942 70.8612 77.827 70.6914C77.8105 70.6787 77.7922 70.6681 77.7713 70.6613C76.9279 70.3961 75.9597 70.4722 75.0644 70.4892ZM81.3633 92.1198C80.2672 91.7346 80.2494 90.885 80.0009 89.7962C79.5996 88.0391 79.2038 86.2797 78.8347 84.5158C78.6875 83.811 78.5434 83.1056 78.3997 82.4003C78.9888 81.3856 79.4722 80.317 80.1053 79.3274C80.7471 78.3244 81.5682 77.4668 82.2258 76.4824C82.3051 76.3633 82.1599 76.2346 82.0464 76.3145C80.3553 77.5106 78.898 79.7377 78.274 81.7802C77.5796 78.3496 76.8976 74.916 76.0123 71.5292C76.0138 71.5242 76.013 71.5191 76.0141 71.5142C79.7501 72.055 83.5441 71.5065 87.2217 70.2691C87.8387 74.3367 88.75 78.4256 88.8731 82.5418C88.9848 86.279 86.1249 88.7023 83.6805 91.1465C82.9642 91.8627 82.4205 92.4912 81.3633 92.1198Z" fill="#E94D1B"/>
<path d="M44.6821 114.616C44.644 114.589 44.6055 114.573 44.5675 114.562C46.7837 114.215 48.9989 111.928 47.0412 109.908C46.8477 109.709 46.3792 109.822 46.4767 110.16C46.8635 111.498 46.5884 112.762 45.2365 113.333C43.642 114.007 42.0209 113.065 41.0135 111.82C39.5896 110.06 39.3802 107.995 38.8816 105.886C38.8756 105.861 38.8608 105.839 38.8434 105.82C40.2733 105.582 41.7034 104.417 42.2757 103.232C42.3607 103.056 42.135 102.845 41.9641 102.937C40.7261 103.607 39.8964 105.03 38.3387 105.06C37.2657 105.08 36.6455 104.475 36.3559 103.635C37.3742 102.801 38.2572 101.824 38.8986 100.856C39.0392 100.644 38.7753 100.39 38.5708 100.549C36.9189 101.836 35.5175 103.513 33.5597 104.365C31.169 105.404 28.5688 104.907 27.1396 102.625C25.9358 100.703 25.9384 98.392 26.7118 96.3065C27.071 95.3376 27.6104 94.491 28.1561 93.649C28.9353 93.1215 29.6313 92.471 30.163 91.7447C30.3235 91.5253 30.0619 91.1446 29.8025 91.3023C29.6651 91.3857 29.5301 91.4743 29.3961 91.5642C29.3971 91.5619 29.3983 91.56 29.3993 91.5578C29.4407 91.4726 29.3259 91.4149 29.2617 91.459C28.7805 91.7918 28.3349 92.1878 27.9284 92.631C27.052 93.2725 26.1465 93.8566 25.0463 94.0517C22.4374 94.5144 20.796 92.391 20.7675 89.9656C20.7287 86.6251 22.9871 84.7847 25.6329 83.5299C25.8174 83.5416 26.0019 83.5528 26.1845 83.5639C26.5057 83.5828 26.6784 83.3199 26.6753 83.0713C26.7192 83.0533 26.7623 83.0341 26.8061 83.0165C26.9305 82.966 26.8956 82.7753 26.7662 82.7627C26.6896 82.7552 26.6141 82.7533 26.5384 82.7493C26.4747 82.6935 26.3885 82.6567 26.278 82.6504C23.2247 82.4771 19.9509 82.3149 17.2978 80.6139C14.5586 78.8575 12.5476 74.7187 15.3902 72.0625C17.9591 69.6624 22.2939 71.3736 24.8868 72.9094C27.5031 74.4591 29.2799 76.5977 31.0888 78.9796C31.2358 79.1732 31.5509 78.9773 31.4513 78.7579C31.4304 78.7115 31.4059 78.6668 31.3842 78.6208C35.8468 78.1815 39.941 75.7958 43.6964 73.5141C48.0806 70.8506 52.5038 68.1645 56.658 65.1507C56.7583 65.078 56.6515 64.8968 56.5425 64.9616C48.5065 69.7602 40.5212 76.3386 31.0758 77.9203C31.059 77.923 31.0483 77.932 31.0329 77.936C29.3697 74.9376 26.3459 72.5826 23.2646 71.2447C20.523 70.054 16.5652 69.2432 14.387 71.9203C14.1703 72.1864 13.9922 72.4674 13.8383 72.7563C7.8936 68.9885 -2.90159 69.4668 -5.26405 77.3391C-6.21338 80.5031 -5.31003 84.0066 -2.54196 85.9398C-0.249228 87.5406 2.7495 87.8921 5.59716 87.5845C5.52904 87.6466 5.46104 87.7068 5.39421 87.7787C4.57256 88.661 4.39165 89.9407 4.82491 91.0492C5.27238 92.1943 6.26082 92.9715 7.37096 93.2813C6.48368 93.8946 5.75415 94.8308 5.34435 95.7098C4.26348 98.0278 4.48561 101.01 5.21251 103.39C5.94102 105.775 7.53043 107.558 10.0048 108.111C12.4839 108.664 14.884 107.91 17.1158 106.869C16.1286 108.762 15.8782 111.735 16.0436 113.634C16.2345 115.823 17.1765 118.094 18.9941 119.423C21.6158 121.342 24.3661 120.731 26.7877 119.23C27.6776 120.436 29.0149 121.097 30.4091 121.251C28.9234 123.716 30.0328 127.603 31.6851 129.657C33.924 132.44 37.8505 133.502 41.2485 132.554C48.6978 130.477 51.2619 119.257 44.6821 114.616ZM41.4049 131.362C38.345 132.418 34.5487 131.58 32.4775 129.013C31.5369 127.847 30.9536 126.422 30.7767 124.935C30.6233 123.642 30.9735 122.519 31.1642 121.285C33.1851 121.244 35.1799 120.159 35.9825 118.124C36.0609 117.925 35.7968 117.813 35.6704 117.958C33.2801 120.706 30.1125 121.085 27.306 118.893C28.9419 117.775 30.4067 116.291 31.5482 114.974C31.8133 114.668 31.3156 114.196 31.0234 114.483C28.1023 117.356 22.7561 122.144 18.7993 117.984C17.2184 116.322 16.7443 113.975 16.8563 111.754C16.9427 110.036 17.7223 108.295 17.6867 106.599C17.956 106.466 18.2236 106.331 18.4874 106.195C18.9692 105.946 18.655 105.217 18.1464 105.421C14.3129 106.956 8.56195 109.021 6.43021 103.882C5.65472 102.011 5.35093 99.6736 5.69064 97.6803C6.07509 95.4248 7.33474 94.2936 9.10639 93.3758C9.84348 93.2443 10.544 92.8899 11.09 92.2743C11.2779 92.0625 10.9876 91.7736 10.7588 91.8679C9.04673 92.5734 6.82345 92.9965 5.77596 90.9809C4.91245 89.3191 6.15877 87.2324 8.07605 87.2162C8.12917 87.2159 8.17163 87.1722 8.18485 87.1255C8.50489 87.0462 8.82097 86.9624 9.12751 86.8706C9.54643 86.7445 9.29504 86.1768 8.92894 86.1918C5.541 86.332 2.19435 87.2711 -1.03483 85.6825C-4.44032 84.0069 -5.51684 80.029 -3.9992 76.6613C-2.5658 73.4802 0.885193 71.7149 4.22516 71.3714C7.58502 71.0262 10.5193 72.1934 13.6631 73.1255C12.6572 75.4416 13.458 78.2666 15.2107 80.0714C17.4738 82.4024 20.6522 83.0911 23.7893 83.3902C21.0425 84.8684 19.2876 88.5829 19.9915 91.4897C20.8736 95.131 23.9151 95.5903 26.6123 94.482C24.963 97.4889 24.7707 101.455 27.0176 104.025C29.536 106.907 33.0148 106.077 35.7386 104.111C36.0259 104.876 36.9198 105.573 37.5977 105.769C37.9182 105.861 38.253 105.885 38.5907 105.855C38.5906 105.856 38.5898 105.856 38.5898 105.857C37.7094 109.096 39.9521 113.889 43.4254 114.555C43.7105 114.61 44.0094 114.619 44.3108 114.593C44.1413 114.693 44.0517 114.936 44.1941 115.136C46.0989 117.815 47.7207 120.467 47.2813 123.91C46.8632 127.196 44.5732 130.269 41.4049 131.362Z" fill="#E94D1B"/>
<path d="M47.0051 107.788C47.5445 104.791 47.7429 101.98 48.9233 99.11C50.0009 96.4891 51.4443 94.0355 52.9946 91.67C54.7353 89.0145 56.5944 86.4322 58.5463 83.9278C60.6615 81.2134 63.1829 78.7345 65.1412 75.915C65.2116 75.8139 65.081 75.692 64.9837 75.7676C62.2783 77.8749 60.0503 80.8142 57.9074 83.4736C55.6588 86.2639 53.5227 89.1571 51.5794 92.169C50.0051 94.6093 48.5597 97.1671 47.5428 99.8944C46.6445 102.304 45.7577 105.236 46.2857 107.807C46.3711 108.22 46.9322 108.193 47.0051 107.788Z" fill="#E94D1B"/>
<path d="M110.525 29.8955C112.164 27.2812 110.847 23.8607 108.216 22.5221C108.019 22.4216 107.863 22.5111 107.783 22.6589C107.536 22.1214 106.778 21.9809 106.113 21.9722C104.595 21.9524 103.007 22.6752 102.021 23.8225C100.168 25.9781 100.683 29.2645 103.079 30.7494C105.504 32.253 108.82 32.6168 110.525 29.8955ZM104.877 30.6094C102.867 29.8581 101.316 28.3102 101.766 26.0083C101.994 24.8389 102.672 23.9837 103.67 23.3542C104.337 22.9339 107.284 21.7963 107.523 23.2642C107.554 23.4539 107.826 23.4408 107.853 23.2554C107.856 23.2331 107.856 23.2133 107.858 23.1918C107.859 23.1922 107.859 23.1934 107.86 23.1938C109.408 24.5451 110.814 26.3658 110.085 28.5543C109.313 30.8737 106.977 31.3942 104.877 30.6094Z" fill="#E94D1B"/>
<path d="M98.0373 45.5338C99.4343 41.9828 98.4852 38.0638 96.2693 35.0938C96.3376 35.0352 96.3659 34.9367 96.2866 34.8489C95.9254 34.4498 95.5394 34.0917 95.1339 33.7695C94.5673 33.1927 93.9539 32.6647 93.2925 32.213C93.105 32.0849 92.8784 32.301 92.976 32.4878C90.6271 31.4801 87.9179 31.4174 85.3372 32.2099C81.043 33.5284 79.6187 37.4464 80.3936 41.6328C81.1765 45.8616 84.1999 49.723 88.5735 50.511C92.5194 51.2221 96.5393 49.3415 98.0373 45.5338ZM85.1113 47.8099C81.65 45.1248 79.4091 38.535 82.5651 34.8484C85.0689 31.9237 90.2378 31.7713 93.7832 33.516C96.4465 36.9452 98.8139 40.9769 96.8965 45.3975C94.8989 50.0022 88.8427 50.7046 85.1113 47.8099Z" fill="#E94D1B"/>
<path d="M95.546 41.8823C96.3382 38.5245 93.9886 34.9486 90.636 34.3211C90.4224 34.2811 90.3278 34.4662 90.3595 34.6339C87.8118 33.1829 84.5769 34.8756 83.7683 37.67C82.786 41.0647 85.0548 45.5266 88.6208 46.296C91.5896 46.9369 94.8518 44.8251 95.546 41.8823ZM89.6814 45.3804C86.7549 45.3625 84.6898 42.3173 84.4151 39.6389C84.0714 36.285 87.5026 33.0885 90.7321 35.1116C90.8035 35.1563 90.8712 35.1012 90.8785 35.0381C93.0882 36.2473 94.9609 38.4819 94.6305 41.1449C94.3352 43.5269 92.047 45.3948 89.6814 45.3804Z" fill="#E94D1B"/>
<path d="M108.082 27.9255C108.749 26.589 108.122 24.2202 106.383 24.1228C105.453 23.7816 104.207 24.0723 103.543 24.7424C102.37 25.9279 102.466 27.9959 103.839 28.9769C105.287 30.0109 107.289 29.5163 108.082 27.9255ZM104.315 28.3073C103.815 27.9652 103.538 27.4404 103.474 26.89C103.836 26.7453 104.181 26.5461 104.528 26.3771C105.082 26.1058 105.637 25.8346 106.192 25.5637C106.359 25.482 106.244 25.2176 106.075 25.2981C105.518 25.5638 104.961 25.8298 104.404 26.0955C104.094 26.243 103.77 26.3766 103.464 26.5382C103.493 25.9212 103.783 25.3128 104.329 24.9274C105.047 24.4195 105.802 24.5167 106.532 24.7816C106.88 25.1321 107.205 25.4931 107.392 25.9075C106.599 26.2135 105.79 26.5223 105.04 26.9196C104.877 27.0056 104.982 27.2401 105.154 27.1796C105.95 26.8998 106.721 26.5182 107.48 26.1456C107.579 26.479 107.585 26.8484 107.441 27.2747C106.992 28.61 105.465 29.0946 104.315 28.3073Z" fill="#E94D1B"/>
<path d="M58.9312 67.8296C59.052 67.6641 58.8649 67.4434 58.6809 67.5225C56.6826 68.382 54.9411 70.0269 53.1604 71.2704C50.8965 72.8516 48.5738 74.3459 46.1976 75.7529C41.8827 78.3082 37.1658 80.156 32.8928 82.751C32.629 82.9112 32.6935 83.4275 33.0631 83.3318C37.9712 82.0596 42.6581 79.1998 46.9703 76.6036C49.1062 75.3177 51.1947 73.9518 53.234 72.5176C55.1565 71.165 57.534 69.7457 58.9312 67.8296Z" fill="#E94D1B"/>
<path d="M60.0595 71.7425C60.4369 71.4729 59.9861 70.9418 59.609 71.1897C50.9698 76.8738 42.6555 84.0274 36.4973 92.3873C36.1395 92.8729 36.8616 93.3512 37.246 92.9193C44.2506 85.0577 51.466 77.8819 60.0595 71.7425Z" fill="#E94D1B"/>
<path d="M56.9933 78.8591C58.7905 76.8861 60.8238 75.0972 62.5326 73.0493C62.7105 72.8361 62.4008 72.6056 62.2004 72.7382C60.1439 74.1004 58.3777 75.9642 56.6903 77.7504C54.8669 79.6805 52.9686 81.7161 51.6498 84.0336C51.5009 84.2953 51.8194 84.6829 52.0739 84.4307C53.8302 82.691 55.3283 80.6874 56.9933 78.8591Z" fill="#E94D1B"/>
<path d="M68.3291 40.1411C65.8912 40.7653 63.2721 42.3664 62.2185 44.7467C62.1673 44.8622 62.3338 44.9912 62.427 44.8963C64.3001 42.987 65.8567 41.4292 68.4117 40.423C68.565 40.3624 68.4936 40.0991 68.3291 40.1411Z" fill="#E94D1B"/>
<path d="M66.4686 43.798C66.7185 43.6609 66.5443 43.2539 66.2883 43.3886C64.6079 44.2753 62.8582 45.4197 61.7829 47.021C61.6808 47.1731 61.8772 47.3715 62.0232 47.2461C63.4848 45.9928 64.7585 44.7342 66.4686 43.798Z" fill="#E94D1B"/>
<path d="M59.2233 60.8912C59.4886 60.4261 59.498 59.8302 59.6583 59.3193C59.8369 58.7492 60.0738 58.1996 60.3526 57.6722C60.4667 57.4566 60.0946 57.2561 59.9717 57.4699C59.6627 58.0069 59.4015 58.5614 59.2126 59.1525C59.0536 59.6496 58.8045 60.3061 58.9402 60.8245C58.9703 60.9408 59.1481 61.0229 59.2233 60.8912Z" fill="#E94D1B"/>
<path d="M59.7942 62.0023C60.0545 61.4621 60.0907 60.8308 60.2906 60.2621C60.4904 59.693 60.7574 59.1513 61.0385 58.6186C61.0741 58.5513 60.9679 58.4751 60.9154 58.5301C60.1478 59.3297 59.2785 60.8286 59.5675 61.9793C59.5968 62.096 59.7416 62.1112 59.7942 62.0023Z" fill="#E94D1B"/>
<path d="M61.1934 61.5303C61.375 60.955 61.5818 60.37 61.6685 59.7716C61.6816 59.6803 61.5414 59.6205 61.4935 59.7056C61.1973 60.2314 61.003 60.8164 60.7956 61.3815C60.5902 61.9421 60.3204 62.5367 60.2755 63.1356C60.2652 63.2718 60.4519 63.3548 60.5326 63.2324C60.8627 62.7309 61.0137 62.0988 61.1934 61.5303Z" fill="#E94D1B"/>
<path d="M61.0866 64.3583C61.3698 63.3622 61.558 62.4583 62.1689 61.5924C62.3329 61.36 61.9818 61.1112 61.8093 61.3368C61.1771 62.1637 60.6159 63.2484 60.662 64.315C60.6717 64.5343 61.0282 64.564 61.0866 64.3583Z" fill="#E94D1B"/>
<path d="M61.5931 65.3149C61.7311 64.9502 61.7454 64.5589 61.899 64.194C62.0705 63.7874 62.3569 63.4291 62.6966 63.1504C62.8762 63.0028 62.687 62.6583 62.4748 62.7878C61.7134 63.2522 60.8476 64.3773 61.2576 65.3245C61.3206 65.4702 61.5375 65.4619 61.5931 65.3149Z" fill="#E94D1B"/>
<path d="M62.4546 66.4816C62.6128 66.0883 62.6609 65.666 62.8102 65.2679C62.9751 64.8263 63.1923 64.4312 63.4627 64.0471C63.539 63.9386 63.3851 63.8407 63.3003 63.9315C62.7191 64.5529 62.1101 65.5755 62.2745 66.4633C62.2911 66.5555 62.4193 66.5691 62.4546 66.4816Z" fill="#E94D1B"/>
<path d="M63.1602 66.9708C63.3386 66.7204 63.3199 66.3754 63.4044 66.0877C63.4466 65.9444 63.5006 65.8031 63.561 65.6664C63.6231 65.5268 63.6683 65.3209 63.7383 65.1908C63.791 65.092 63.6809 64.954 63.5807 65.0434C63.4261 65.1814 63.3047 65.2287 63.1893 65.4128C63.0807 65.5861 62.994 65.769 62.9302 65.9632C62.8255 66.2817 62.7225 66.6841 62.9341 66.9777C62.9887 67.0539 63.1093 67.0422 63.1602 66.9708Z" fill="#E94D1B"/>
<path d="M90.2942 36.2089C90.4022 36.1138 90.2683 35.9486 90.1532 36.0354C88.7847 37.0671 87.4209 38.1336 86.1409 39.2739C86.0102 39.3903 86.172 39.5895 86.3127 39.4846C87.6876 38.4615 89.0074 37.341 90.2942 36.2089Z" fill="#E94D1B"/>
<path d="M92.1109 36.4002C92.2032 36.325 92.092 36.197 91.9963 36.2596C89.7715 37.7217 87.3832 39.5619 85.7128 41.6504C85.6417 41.7394 85.7711 41.8551 85.8572 41.7853C87.9896 40.0604 89.9731 38.1348 92.1109 36.4002Z" fill="#E94D1B"/>
<path d="M90.1759 39.2881C90.2109 39.2335 90.1404 39.1575 90.0883 39.2063C89.6176 39.6475 89.1644 40.105 88.6734 40.5251C88.1841 40.9438 87.6145 41.2939 87.1665 41.7545C87.0728 41.8509 87.1569 42.0185 87.2947 41.9638C88.446 41.5055 89.5185 40.3152 90.1759 39.2881Z" fill="#E94D1B"/>
<path d="M91.0197 41.5883C91.1179 41.5058 90.9944 41.3541 90.8937 41.4338C90.1671 42.009 89.2921 42.5486 88.6845 43.25C88.627 43.3163 88.7183 43.4286 88.7948 43.3857C89.6055 42.9317 90.31 42.1837 91.0197 41.5883Z" fill="#E94D1B"/>
<path d="M107.295 26.8565C106.666 27.1301 106.045 27.5276 105.494 27.9343C105.41 27.9965 105.497 28.1414 105.591 28.0927C106.199 27.7782 106.831 27.3966 107.354 26.9539C107.403 26.9118 107.355 26.8303 107.295 26.8565Z" fill="#E94D1B"/>
<path d="M118.54 13.7845C118.002 12.3088 117.619 11.027 117.8 9.43031C117.824 9.22183 117.521 9.19876 117.482 9.39766C117.192 10.875 117.357 12.7 118.265 13.9531C118.377 14.1096 118.601 13.9494 118.54 13.7845Z" fill="#E94D1B"/>
<path d="M119.982 13.5878C119.755 12.9928 119.447 12.4337 119.239 11.8302C119.033 11.2331 118.921 10.6112 118.731 10.0106C118.703 9.92147 118.565 9.95288 118.558 10.0377C118.458 11.258 118.963 12.7954 119.773 13.716C119.866 13.8219 120.032 13.7191 119.982 13.5878Z" fill="#E94D1B"/>
<path d="M121.466 12.6964C121.285 12.3296 121.012 12.0171 120.818 11.6561C120.601 11.2504 120.444 10.822 120.334 10.3751C120.285 10.1804 119.977 10.2256 120.023 10.4236C120.215 11.2536 120.58 12.3129 121.304 12.8289C121.389 12.8893 121.515 12.7943 121.466 12.6964Z" fill="#E94D1B"/>
<path d="M122.245 12.0516C122.067 11.4962 121.859 11.0021 121.908 10.4038C121.915 10.3124 121.768 10.2688 121.745 10.3657C121.601 10.9537 121.632 11.6965 122.097 12.1424C122.168 12.2111 122.276 12.149 122.245 12.0516Z" fill="#E94D1B"/>
<path d="M123.342 12.1217C123.199 11.9338 123.054 11.7539 122.975 11.5277C122.934 11.4106 122.916 11.2861 122.915 11.1624C122.914 11.0627 122.885 10.96 122.9 10.8633C122.914 10.7728 122.781 10.7472 122.748 10.828C122.686 10.9807 122.628 11.0373 122.629 11.2079C122.629 11.3455 122.652 11.48 122.693 11.6114C122.779 11.8909 122.965 12.1498 123.246 12.2544C123.327 12.2842 123.391 12.1874 123.342 12.1217Z" fill="#E94D1B"/>
<path d="M47.9928 43.0672C48.1013 42.9636 47.9581 42.7823 47.8438 42.8847C47.1602 43.4949 46.4512 44.0562 45.6796 44.5516C44.9161 45.0414 44.0663 45.4091 43.3398 45.9483C43.2301 46.0296 43.3129 46.2445 43.4536 46.204C45.1662 45.7101 46.7326 44.2705 47.9928 43.0672Z" fill="#E94D1B"/>
<path d="M47.3032 45.3785C47.9297 44.8225 48.5921 44.3132 49.234 43.7761C49.3367 43.6903 49.2298 43.4929 49.1058 43.5667C48.3756 43.9998 47.6948 44.5161 47.0464 45.0636C46.4831 45.5389 45.8518 46.0003 45.5123 46.6639C45.4703 46.746 45.5792 46.844 45.658 46.8016C46.2911 46.4596 46.7662 45.8548 47.3032 45.3785Z" fill="#E94D1B"/>
<path d="M50.549 44.5372C50.6845 44.4537 50.5427 44.2221 50.402 44.2971C49.4247 44.8198 48.3011 45.4602 47.6358 46.3685C47.5185 46.5285 47.7295 46.7047 47.8805 46.5978C48.8022 45.945 49.5762 45.1369 50.549 44.5372Z" fill="#E94D1B"/>
<path d="M50.395 46.2021C50.8185 45.8395 51.2181 45.4536 51.6138 45.0608C51.6774 44.9976 51.6008 44.9033 51.5261 44.953C51.0616 45.2617 50.6023 45.573 50.1622 45.9163C49.7835 46.2118 49.3445 46.4924 49.078 46.8946C49.015 46.9896 49.1116 47.1089 49.218 47.0664C49.6609 46.8884 50.0335 46.5112 50.395 46.2021Z" fill="#E94D1B"/>
<path d="M53.3048 45.509C53.447 45.3996 53.2975 45.1391 53.1361 45.2333C52.2013 45.7763 50.963 46.3063 50.2793 47.1603C50.1693 47.2979 50.3388 47.4399 50.4744 47.3998C51.51 47.0942 52.4638 46.1544 53.3048 45.509Z" fill="#E94D1B"/>
<path d="M78.9864 75.1747C79.4342 74.5897 79.9226 74.0244 80.4545 73.5149C80.5667 73.4073 80.4297 73.2376 80.3019 73.3275C79.2951 74.0366 77.9456 75.1028 77.6453 76.3655C77.6086 76.5193 77.7794 76.699 77.9248 76.5661C78.3571 76.1711 78.6317 75.6384 78.9864 75.1747Z" fill="#E94D1B"/>
<path d="M80.2179 76.2623C80.6034 75.7158 81.0417 75.2099 81.4685 74.6956C81.5811 74.5598 81.3777 74.3795 81.2457 74.4869C80.2301 75.3132 79.204 76.5163 78.8754 77.8073C78.8407 77.9437 79.0034 78.0426 79.0977 77.9253C79.5177 77.4028 79.8319 76.8096 80.2179 76.2623Z" fill="#E94D1B"/>
<path d="M79.7658 83.1793C80.6488 81.9945 81.5268 80.845 82.5903 79.8122C82.7752 79.6328 82.5254 79.3188 82.3346 79.4986C81.2395 80.5281 80.2161 81.6565 79.4606 82.9623C79.3418 83.1671 79.6192 83.376 79.7658 83.1793Z" fill="#E94D1B"/>
<path d="M82.5705 81.3784C82.6243 81.2863 82.5211 81.1786 82.4305 81.2473C81.3184 82.0907 80.1102 83.3568 79.4122 84.5614C79.3272 84.7084 79.4901 84.879 79.635 84.7702C80.7672 83.9211 81.8592 82.591 82.5705 81.3784Z" fill="#E94D1B"/>
<path d="M81.4061 84.8944C81.8022 84.3114 82.2715 83.7929 82.7736 83.2988C82.9226 83.1522 82.7414 82.9245 82.5674 83.0458C81.4787 83.8071 80.3655 85.0427 80.1834 86.4033C80.1653 86.54 80.3521 86.6038 80.4295 86.4958C80.7964 85.9844 81.0529 85.4148 81.4061 84.8944Z" fill="#E94D1B"/>
<path d="M83.6322 85.8702C83.7142 85.6823 83.4149 85.5161 83.3092 85.6989C82.7043 86.7474 81.9165 87.899 81.6581 89.0867C81.6251 89.2375 81.8297 89.2722 81.9095 89.1815C82.6971 88.2856 83.1594 86.9543 83.6322 85.8702Z" fill="#E94D1B"/>
<path d="M83.1973 89.4259C83.4304 89.0877 83.7252 88.7908 84.0512 88.5418C84.1562 88.4617 84.0495 88.2847 83.9293 88.3425C83.2436 88.6728 82.2741 89.477 82.3726 90.3356C82.3887 90.4766 82.5601 90.4877 82.6397 90.3985C82.8853 90.1235 82.9864 89.7318 83.1973 89.4259Z" fill="#E94D1B"/>
<path d="M105.266 54.9939C105.478 54.7973 105.207 54.4555 104.98 54.6426C101.002 57.9213 96.6647 60.7837 92.0306 63.049C87.5046 65.2615 82.7785 66.3916 78.0383 67.9813C77.7167 68.0891 77.8944 68.5475 78.1965 68.5221C83.1686 68.0972 88.2818 65.9183 92.7017 63.715C97.3029 61.4207 101.501 58.4932 105.266 54.9939Z" fill="#E94D1B"/>
</svg>
